<svg width="100" height="100" viewBox="0 0 100 100" fill="none" xmlns="http://www.w3.org/2000/svg">
<path d="M8.33331 83.3334H91.6667V91.6667H8.33331V83.3334ZM16.6666 50H25V79.1667H16.6666V50ZM37.5 50H45.8333V79.1667H37.5V50ZM54.1666 50H62.5V79.1667H54.1666V50ZM75 50H83.3333V79.1667H75V50ZM8.33331 29.1667L50 8.33337L91.6667 29.1667V45.8334H8.33331V29.1667ZM16.6666 34.317V37.5H83.3333V34.317L50 17.6503L16.6666 34.317ZM50 33.3334C47.6987 33.3334 45.8333 31.4679 45.8333 29.1667C45.8333 26.8655 47.6987 25 50 25C52.3012 25 54.1666 26.8655 54.1666 29.1667C54.1666 31.4679 52.3012 33.3334 50 33.3334Z" fill="#FECC00"/>
</svg>
