<svg width="100" height="96" viewBox="0 0 100 96" fill="none" xmlns="http://www.w3.org/2000/svg">
<path d="M49.5833 50.2296L74.5833 85.6653H24.5833L49.5833 50.2296ZM49.5833 64.4039L40.1667 77.7907H59L49.5833 64.4039ZM45.1638 40.6249C42.7233 38.3187 42.7233 34.5792 45.1638 32.2728C47.6046 29.9664 51.5621 29.9664 54.0029 32.2728C56.4433 34.5792 56.4433 38.3187 54.0029 40.6249C51.5621 42.9314 47.6046 42.9314 45.1638 40.6249ZM21.5937 10L27.4863 15.5682C15.2824 27.1003 15.2824 45.7977 27.4863 57.3297L21.5937 62.8979C6.13543 48.2904 6.13543 24.6073 21.5937 10ZM77.5729 10C93.0313 24.6073 93.0313 48.2904 77.5729 62.8979L71.6804 57.3297C83.8842 45.7977 83.8842 27.1003 71.6804 15.5682L77.5729 10ZM33.3788 21.1364L39.2714 26.7046C33.5762 32.0863 33.5762 40.8115 39.2714 46.1934L33.3788 51.7616C24.4293 43.3046 24.4293 29.5933 33.3788 21.1364ZM65.7879 21.1364C74.7375 29.5933 74.7375 43.3046 65.7879 51.7616L59.8954 46.1934C65.5904 40.8115 65.5904 32.0863 59.8954 26.7046L65.7879 21.1364Z" fill="#FECC00"/>
</svg>
