<svg width="45" height="45" viewBox="0 0 45 45" fill="none" xmlns="http://www.w3.org/2000/svg">
<path d="M22.5 24.3752L33.75 41.2502H11.25L22.5 24.3752ZM22.5 31.1252L18.2625 37.5002H26.7375L22.5 31.1252ZM20.5112 19.8013C19.413 18.703 19.413 16.9222 20.5112 15.8239C21.6096 14.7255 23.3904 14.7255 24.4888 15.8239C25.587 16.9222 25.587 18.703 24.4888 19.8013C23.3904 20.8997 21.6096 20.8997 20.5112 19.8013ZM9.90467 5.21729L12.5563 7.86893C7.06457 13.3607 7.06457 22.2647 12.5563 27.7563L9.90467 30.408C2.94844 23.4517 2.94844 12.1735 9.90467 5.21729ZM35.0953 5.21729C42.0516 12.1735 42.0516 23.4517 35.0953 30.408L32.4437 27.7563C37.9354 22.2647 37.9354 13.3607 32.4437 7.86893L35.0953 5.21729ZM15.208 10.5206L17.8596 13.1722C15.2968 15.7351 15.2968 19.8902 17.8596 22.4531L15.208 25.1047C11.1807 21.0774 11.1807 14.5479 15.208 10.5206ZM29.7921 10.5206C33.8194 14.5479 33.8194 21.0774 29.7921 25.1047L27.1404 22.4531C29.7032 19.8902 29.7032 15.7351 27.1404 13.1722L29.7921 10.5206Z" fill="#0F89FF"/>
</svg>
