<svg width="105" height="134" viewBox="0 0 105 134" fill="none" xmlns="http://www.w3.org/2000/svg">
<circle cx="14" cy="10" r="10" fill="#FECC00"/>
<circle cx="14" cy="38" r="10" fill="#FECC00"/>
<circle cx="14" cy="66" r="10" fill="#FECC00"/>
<circle cx="14" cy="94" r="10" fill="#FECC00"/>
<circle cx="14" cy="122" r="10" fill="#FECC00"/>
<circle cx="41" cy="10" r="10" fill="#FECC00"/>
<circle cx="41" cy="38" r="10" fill="#FECC00"/>
<circle cx="41" cy="66" r="10" fill="#FECC00"/>
<circle cx="41" cy="94" r="10" fill="#FECC00"/>
<circle cx="41" cy="122" r="10" fill="#FECC00"/>
<circle cx="68" cy="12" r="10" fill="#FECC00"/>
<circle cx="68" cy="40" r="10" fill="#FECC00"/>
<circle cx="68" cy="68" r="10" fill="#FECC00"/>
<circle cx="68" cy="96" r="10" fill="#FECC00"/>
<circle cx="68" cy="124" r="10" fill="#FECC00"/>
<circle cx="95" cy="12" r="10" fill="#FECC00"/>
<circle cx="95" cy="40" r="10" fill="#FECC00"/>
<circle cx="95" cy="68" r="10" fill="#FECC00"/>
<circle cx="95" cy="96" r="10" fill="#FECC00"/>
<circle cx="95" cy="124" r="10" fill="#FECC00"/>
</svg>
