<svg width="215" height="188" viewBox="0 0 215 188" fill="none" xmlns="http://www.w3.org/2000/svg">
<path d="M164.064 21.3073C174.818 31.6121 180.41 44.0009 187.723 55.1162C194.892 66.3472 203.925 76.3046 209.517 88.9251C214.965 101.545 216.973 116.713 212.671 132.112C208.513 147.627 198.046 163.258 181.7 174.142C165.498 184.91 143.417 190.699 124.204 186.762C104.991 182.826 88.5018 168.932 67.9981 160.132C47.4944 151.333 22.976 147.512 10.9319 136.049C-1.2556 124.586 -0.825452 105.482 0.895137 87.1883C2.75911 68.8945 5.77014 51.4111 16.5238 38.096C27.2775 24.8966 45.9172 15.8655 64.7003 9.2658C83.4834 2.66612 102.41 -1.61788 119.903 0.582016C137.252 2.66612 153.311 11.0026 164.064 21.3073Z" fill="#2B6F6E"/>
<path d="M75.5826 114.769C76.3671 115.651 76.2597 116.98 75.3425 117.735C74.4254 118.49 73.0451 118.387 72.2606 117.504C62.7667 106.842 57.892 94.7797 58.0018 82.5618C58.1084 70.6469 62.9539 58.6452 72.8767 47.7179C73.6718 46.8447 75.0512 46.7554 75.9594 47.5197C76.8668 48.2849 76.9596 49.6123 76.1645 50.4863C66.9603 60.6234 62.4656 71.6791 62.3679 82.5947C62.2678 93.7827 66.7853 104.889 75.5826 114.769ZM87.0354 104.513C87.8345 105.381 87.7507 106.71 86.8474 107.478C85.9449 108.247 84.5646 108.167 83.7655 107.298C76.4664 99.3595 72.7359 90.9485 72.8848 82.4278C73.0305 74.1288 76.8465 65.836 84.6224 57.8933C85.4501 57.0468 86.8336 57.006 87.7133 57.8025C88.593 58.599 88.6353 59.9303 87.8077 60.7769C80.8105 67.9247 77.3779 75.2605 77.2509 82.4936C77.1207 89.9296 80.4752 97.3774 87.0354 104.513ZM97.182 94.7491C97.9429 95.6497 97.8013 96.9748 96.8646 97.7071C95.9279 98.4393 94.5517 98.3031 93.7908 97.4017C89.8585 92.7419 87.8118 87.6937 87.7963 82.568C87.78 77.5606 89.7063 72.5531 93.7086 67.8362C94.4704 66.9356 95.8457 66.7985 96.7816 67.5308C97.7175 68.263 97.8599 69.5881 97.099 70.4879C93.7583 74.4256 92.1502 78.5293 92.1632 82.5672C92.1746 86.7015 93.8885 90.8467 97.182 94.7491ZM143.739 117.504C142.955 118.387 141.575 118.49 140.657 117.735C139.74 116.98 139.633 115.651 140.417 114.769C149.216 104.889 153.732 93.7827 153.632 82.5947C153.534 71.6791 149.04 60.6226 139.836 50.4863C139.04 49.6123 139.133 48.2841 140.041 47.5197C140.948 46.7554 142.329 46.8447 143.123 47.7179C153.045 58.6452 157.892 70.6469 157.998 82.5618C158.109 94.7797 153.233 106.842 143.739 117.504ZM132.236 107.298C131.437 108.166 130.057 108.247 129.154 107.478C128.251 106.709 128.166 105.38 128.966 104.512C135.526 97.3774 138.881 89.9296 138.751 82.4928C138.625 75.2597 135.192 67.9231 128.194 60.7761C127.366 59.9295 127.409 58.5982 128.288 57.8017C129.167 57.0052 130.552 57.046 131.379 57.8926C139.154 65.836 142.971 74.128 143.117 82.4271C143.265 90.9477 139.534 99.3587 132.236 107.298ZM122.21 97.4017C121.448 98.3023 120.072 98.4393 119.136 97.7071C118.2 96.9748 118.059 95.6497 118.82 94.7491C122.112 90.8475 123.825 86.7023 123.838 82.568C123.851 78.5301 122.243 74.4264 118.903 70.4887C118.141 69.5889 118.283 68.2638 119.22 67.5316C120.157 66.7993 121.532 66.9356 122.293 67.837C126.295 72.5531 128.221 77.5613 128.205 82.5688C128.189 87.6945 126.142 92.7419 122.21 97.4017ZM110.192 90.2531L110.192 124.891C110.192 126.056 109.211 127 108.001 127C106.791 127 105.81 126.056 105.81 124.891L105.81 90.2515C104.42 89.8819 103.178 89.1708 102.187 88.2177C100.698 86.7845 99.7772 84.8055 99.7772 82.6197C99.7772 80.4339 100.698 78.4549 102.187 77.0225C103.676 75.5902 105.733 74.7036 108.003 74.7036C110.275 74.7036 112.331 75.5902 113.82 77.0225C115.309 78.4549 116.23 80.4339 116.23 82.6197C116.23 84.8055 115.309 86.7845 113.82 88.2177C112.828 89.1723 111.584 89.8842 110.192 90.2531Z" fill="#F2F5FB"/>
</svg>
