<svg width="343" height="224" viewBox="0 0 343 224" fill="none" xmlns="http://www.w3.org/2000/svg">
<path d="M251.076 37.184C273.886 40.768 291.036 56 295.838 72.128C300.468 88.368 292.579 105.504 284.862 120.848C277.316 136.192 269.941 149.856 258.794 165.2C247.475 180.544 232.554 197.68 211.288 202.72C190.022 207.648 162.411 200.592 136.343 193.872C110.103 187.264 85.5786 180.88 63.6266 169.904C41.8461 159.04 22.8096 143.36 24.6961 128.016C26.5826 112.672 49.3921 97.552 64.4841 81.872C79.5761 66.192 87.1221 49.952 103.586 44.576C120.222 39.088 145.775 44.464 172.872 43.12C199.798 41.776 228.267 33.6 251.076 37.184Z" fill="#2B6F6E"/>
<g clip-path="url(#clip0_11_93)">
<path fill-rule="evenodd" clip-rule="evenodd" d="M154.4 121.223C156.186 121.223 157.624 122.285 157.624 123.585C157.624 124.894 156.175 125.948 154.4 125.948C152.626 125.948 151.177 124.886 151.177 123.585C151.177 122.277 152.615 121.223 154.4 121.223ZM194.796 83.5995C194.19 83.9946 193.28 83.9452 192.741 83.5172C192.202 83.0727 192.27 82.406 192.854 82.011C199.075 77.9778 205.645 75.9201 212.305 76.0024C218.796 76.0847 225.276 78.1918 231.498 82.4801C232.082 82.8834 232.115 83.5584 231.565 83.9864C231.015 84.4144 230.094 84.4391 229.51 84.0358C223.838 80.1178 218.01 78.2083 212.26 78.1342C206.341 78.0601 200.445 79.9368 194.774 83.616L194.796 83.5995ZM108.165 83.5995C107.558 83.9946 106.648 83.9452 106.109 83.5172C105.582 83.0727 105.649 82.3978 106.233 82.011C112.443 77.9778 119.013 75.9201 125.684 76.0024C132.175 76.0847 138.655 78.1918 144.877 82.4801C145.461 82.8834 145.495 83.5584 144.944 83.9864C144.394 84.4144 143.473 84.4391 142.889 84.0358C137.218 80.1178 131.389 78.2083 125.639 78.1342C119.721 78.0601 113.813 79.9368 108.153 83.616L108.165 83.5995ZM212.181 92.5712C214.551 92.5712 216.494 93.9787 216.494 95.7319C216.494 96.8184 215.741 97.7896 214.584 98.3576V110.605H234.227C235.271 110.605 236.214 110.918 236.899 111.42C237.584 111.922 238.011 112.614 238.011 113.379V139.43C238.011 140.195 237.584 140.887 236.899 141.389C236.214 141.891 235.271 142.204 234.227 142.204H222.165V147.011H202.186V142.204H135.095V147.011H115.116V142.204H103.785C102.74 142.204 101.797 141.891 101.112 141.389C100.427 140.879 100 140.187 100 139.422V113.371C100 112.614 100.427 111.922 101.112 111.42C101.797 110.918 102.74 110.605 103.785 110.605H123.359V98.4481C122.09 97.8966 121.237 96.8842 121.237 95.7237C121.237 93.987 123.157 92.563 125.549 92.563C127.919 92.563 129.862 93.9705 129.862 95.7237C129.862 96.8431 129.064 97.8226 127.874 98.3905V110.597H210.07V98.4893C208.756 97.946 207.869 96.9172 207.869 95.7319C207.869 93.987 209.789 92.5712 212.181 92.5712ZM202.5 89.2377C201.883 89.6081 200.962 89.5423 200.457 89.0813C199.951 88.6286 200.041 87.9537 200.67 87.5833C204.297 85.4186 208.239 84.2992 212.215 84.2909C216.112 84.2745 220.02 85.3445 223.704 87.5339C224.321 87.9043 224.422 88.5792 223.917 89.0319C223.412 89.4846 222.491 89.5587 221.873 89.1883C218.728 87.3117 215.449 86.4063 212.226 86.4063C208.913 86.4145 205.611 87.3775 202.5 89.2212V89.2377ZM115.869 89.2377C115.251 89.6081 114.33 89.5423 113.825 89.0813C113.319 88.6286 113.409 87.9537 114.038 87.5833C117.666 85.4186 121.607 84.2992 125.583 84.2909C129.48 84.2745 133.388 85.3445 137.072 87.5339C137.689 87.9043 137.791 88.5792 137.285 89.0319C136.78 89.4846 135.859 89.5587 135.241 89.1883C132.097 87.3117 128.817 86.4063 125.594 86.4063C122.281 86.4145 118.979 87.3775 115.869 89.2212V89.2377ZM233.485 113.914H104.515V138.887H233.485V113.914ZM113.881 121.486H126.425V126.211H113.881V121.486ZM140.958 121.223C142.743 121.223 144.181 122.285 144.181 123.585C144.181 124.894 142.732 125.948 140.958 125.948C139.172 125.948 137.734 124.886 137.734 123.585C137.723 122.277 139.172 121.223 140.958 121.223Z" fill="#F2F5FB"/>
</g>
<defs>
<clipPath id="clip0_11_93">
<rect width="138" height="71" fill="white" transform="translate(100 76)"/>
</clipPath>
</defs>
</svg>
