<svg width="128" height="134" viewBox="0 0 128 134" fill="none" xmlns="http://www.w3.org/2000/svg">
<circle cx="10" cy="10" r="10" fill="#27AB72"/>
<circle cx="10" cy="38" r="10" fill="#27AB72"/>
<circle cx="10" cy="66" r="10" fill="#27AB72"/>
<circle cx="10" cy="94" r="10" fill="#27AB72"/>
<circle cx="10" cy="122" r="10" fill="#27AB72"/>
<circle cx="37" cy="10" r="10" fill="#27AB72"/>
<circle cx="37" cy="38" r="10" fill="#27AB72"/>
<circle cx="37" cy="66" r="10" fill="#27AB72"/>
<circle cx="37" cy="94" r="10" fill="#27AB72"/>
<circle cx="37" cy="122" r="10" fill="#27AB72"/>
<circle cx="64" cy="10" r="10" fill="#27AB72"/>
<circle cx="64" cy="38" r="10" fill="#27AB72"/>
<circle cx="64" cy="66" r="10" fill="#27AB72"/>
<circle cx="64" cy="94" r="10" fill="#27AB72"/>
<circle cx="64" cy="122" r="10" fill="#27AB72"/>
<circle cx="91" cy="12" r="10" fill="#27AB72"/>
<circle cx="91" cy="40" r="10" fill="#27AB72"/>
<circle cx="91" cy="68" r="10" fill="#27AB72"/>
<circle cx="91" cy="96" r="10" fill="#27AB72"/>
<circle cx="91" cy="124" r="10" fill="#27AB72"/>
<circle cx="118" cy="12" r="10" fill="#27AB72"/>
<circle cx="118" cy="40" r="10" fill="#27AB72"/>
<circle cx="118" cy="68" r="10" fill="#27AB72"/>
<circle cx="118" cy="96" r="10" fill="#27AB72"/>
<circle cx="118" cy="124" r="10" fill="#27AB72"/>
</svg>
