<svg width="28" height="28" viewBox="0 0 28 28" fill="none" xmlns="http://www.w3.org/2000/svg">
<path d="M12.3667 19.3666L20.5917 11.1416L18.9583 9.50825L12.3667 16.0999L9.04166 12.7749L7.40833 14.4083L12.3667 19.3666ZM14 25.6666C12.3861 25.6666 10.8694 25.3601 9.45 24.7473C8.03055 24.1344 6.79583 23.3033 5.74583 22.2541C4.69583 21.2049 3.86477 19.9701 3.25266 18.5499C2.64055 17.1297 2.33411 15.613 2.33333 13.9999C2.33255 12.3868 2.639 10.8701 3.25266 9.44992C3.86633 8.0297 4.69739 6.79497 5.74583 5.74575C6.79427 4.69653 8.029 3.86547 9.45 3.25259C10.871 2.6397 12.3877 2.33325 14 2.33325C15.6123 2.33325 17.129 2.6397 18.55 3.25259C19.971 3.86547 21.2057 4.69653 22.2542 5.74575C23.3026 6.79497 24.1341 8.0297 24.7485 9.44992C25.3629 10.8701 25.669 12.3868 25.6667 13.9999C25.6643 15.613 25.3579 17.1297 24.7473 18.5499C24.1368 19.9701 23.3057 21.2049 22.2542 22.2541C21.2026 23.3033 19.9679 24.1348 18.55 24.7484C17.1321 25.3621 15.6154 25.6681 14 25.6666ZM14 23.3333C16.6056 23.3333 18.8125 22.4291 20.6208 20.6208C22.4292 18.8124 23.3333 16.6055 23.3333 13.9999C23.3333 11.3944 22.4292 9.18742 20.6208 7.37909C18.8125 5.57075 16.6056 4.66659 14 4.66659C11.3944 4.66659 9.1875 5.57075 7.37916 7.37909C5.57083 9.18742 4.66666 11.3944 4.66666 13.9999C4.66666 16.6055 5.57083 18.8124 7.37916 20.6208C9.1875 22.4291 11.3944 23.3333 14 23.3333Z" fill="#FECC00"/>
</svg>
