<svg width="28" height="28" viewBox="0 0 28 28" fill="none" xmlns="http://www.w3.org/2000/svg">
<path d="M12.3667 19.3666L20.5917 11.1416L18.9584 9.50831L12.3667 16.1L9.04171 12.775L7.40838 14.4083L12.3667 19.3666ZM14 25.6666C12.3862 25.6666 10.8695 25.3602 9.45004 24.7473C8.0306 24.1344 6.79588 23.3034 5.74588 22.2541C4.69588 21.2049 3.86482 19.9702 3.25271 18.55C2.6406 17.1298 2.33415 15.6131 2.33338 14C2.3326 12.3869 2.63904 10.8702 3.25271 9.44998C3.86638 8.02976 4.69743 6.79504 5.74588 5.74581C6.79432 4.69659 8.02904 3.86554 9.45004 3.25265C10.871 2.63976 12.3877 2.33331 14 2.33331C15.6124 2.33331 17.129 2.63976 18.55 3.25265C19.971 3.86554 21.2058 4.69659 22.2542 5.74581C23.3027 6.79504 24.1341 8.02976 24.7485 9.44998C25.363 10.8702 25.669 12.3869 25.6667 14C25.6644 15.6131 25.3579 17.1298 24.7474 18.55C24.1368 19.9702 23.3058 21.2049 22.2542 22.2541C21.2027 23.3034 19.9679 24.1348 18.55 24.7485C17.1322 25.3621 15.6155 25.6682 14 25.6666ZM14 23.3333C16.6056 23.3333 18.8125 22.4291 20.6209 20.6208C22.4292 18.8125 23.3334 16.6055 23.3334 14C23.3334 11.3944 22.4292 9.18748 20.6209 7.37915C18.8125 5.57081 16.6056 4.66665 14 4.66665C11.3945 4.66665 9.18754 5.57081 7.37921 7.37915C5.57088 9.18748 4.66671 11.3944 4.66671 14C4.66671 16.6055 5.57088 18.8125 7.37921 20.6208C9.18754 22.4291 11.3945 23.3333 14 23.3333Z" fill="#27AB72"/>
</svg>
