<svg width="45" height="45" viewBox="0 0 45 45" fill="none" xmlns="http://www.w3.org/2000/svg">
<path d="M22.5 3.75C29.7488 3.75 35.625 9.62627 35.625 16.875C35.625 17.0878 35.6199 17.2995 35.61 17.5098C39.9872 19.05 43.125 23.2211 43.125 28.125C43.125 34.3382 38.0882 39.375 31.875 39.375H13.125C6.91179 39.375 1.875 34.3382 1.875 28.125C1.875 23.2211 5.01274 19.05 9.39007 17.5098C9.38006 17.2995 9.375 17.0878 9.375 16.875C9.375 9.62627 15.2513 3.75 22.5 3.75ZM22.5 7.5C17.3223 7.5 13.125 11.6973 13.125 16.875C13.125 17.0278 13.1286 17.1799 13.1358 17.3314L13.2687 20.1204L10.6347 21.0472C7.65825 22.0944 5.625 24.9167 5.625 28.125C5.625 32.2671 8.98286 35.625 13.125 35.625H31.875C36.0171 35.625 39.375 32.2671 39.375 28.125C39.375 23.9813 36.0187 20.625 31.875 20.625C28.5619 20.625 25.7507 22.7732 24.7579 25.7526L21.1995 24.5664C22.6884 20.0972 26.9062 16.875 31.875 16.875C31.875 11.6973 27.6776 7.5 22.5 7.5Z" fill="#0CD68A"/>
</svg>
