<svg width="42" height="48" viewBox="0 0 42 48" fill="none" xmlns="http://www.w3.org/2000/svg">
<path d="M22.2048 41C12.5398 41 4.70483 33.1649 4.70483 23.5C4.70483 13.835 12.5398 6 22.2048 6C31.8697 6 39.7048 13.835 39.7048 23.5C39.7048 33.1649 31.8697 41 22.2048 41ZM18.1974 36.9179C16.5128 33.3453 15.4801 29.4049 15.2526 25.25H8.31314C9.00633 30.8089 12.9585 35.3557 18.1974 36.9179ZM18.7586 25.25C19.0218 29.5179 20.241 33.527 22.2048 37.066C24.1687 33.527 25.3879 29.5179 25.6511 25.25H18.7586ZM36.0965 25.25H29.1571C28.9296 29.4049 27.8969 33.3453 26.2123 36.9179C31.4511 35.3557 35.4033 30.8089 36.0965 25.25ZM8.31314 21.75H15.2526C15.4801 17.5951 16.5128 13.6546 18.1974 10.082C12.9585 11.6443 9.00633 16.1911 8.31314 21.75ZM18.7586 21.75H25.6511C25.3879 17.4821 24.1687 13.4729 22.2048 9.93398C20.241 13.4729 19.0218 17.4821 18.7586 21.75ZM26.2123 10.082C27.8969 13.6546 28.9296 17.5951 29.1571 21.75H36.0965C35.4033 16.1911 31.4511 11.6443 26.2123 10.082Z" fill="#2DFFE9"/>
</svg>
