<svg width="351" height="277" viewBox="0 0 351 277" fill="none" xmlns="http://www.w3.org/2000/svg">
<path d="M61.7149 234.649C64.4686 237.705 64.0915 242.304 60.8723 244.918C57.653 247.535 52.8084 247.177 50.0548 244.121C16.7311 207.202 -0.379249 165.437 0.00637636 123.133C0.380575 81.8775 17.3881 40.3214 52.2171 2.48566C55.0079 -0.53784 59.8496 -0.846968 63.0375 1.79961C66.2225 4.44889 66.5481 9.04515 63.7573 12.0714C31.4505 47.171 15.6742 85.4514 15.3314 123.246C14.98 161.985 30.8364 200.442 61.7149 234.649ZM101.914 199.138C104.719 202.145 104.425 206.746 101.254 209.407C98.0865 212.069 93.2419 211.79 90.4368 208.783C64.8171 181.295 51.723 152.172 52.2457 122.669C52.757 93.9335 66.151 65.2198 93.4447 37.7182C96.3498 34.7869 101.206 34.6459 104.294 37.4036C107.381 40.1614 107.53 44.7712 104.625 47.7025C80.065 72.4518 68.0163 97.8518 67.5707 122.897C67.1137 148.644 78.8881 174.432 101.914 199.138ZM137.529 165.331C140.2 168.45 139.703 173.038 136.415 175.573C133.127 178.109 128.297 177.637 125.626 174.516C111.823 158.381 104.639 140.902 104.585 123.154C104.528 105.816 111.289 88.4776 125.337 72.1453C128.011 69.0269 132.838 68.5524 136.123 71.0878C139.408 73.6232 139.908 78.2113 137.237 81.327C125.512 94.9612 119.867 109.17 119.913 123.152C119.953 137.466 125.969 151.819 137.529 165.331ZM300.945 244.121C298.192 247.177 293.347 247.535 290.128 244.918C286.908 242.304 286.531 237.705 289.285 234.649C320.166 200.442 336.02 161.985 335.669 123.246C335.326 85.4514 319.549 47.1683 287.243 12.0714C284.452 9.04515 284.777 4.44618 287.962 1.79961C291.147 -0.846968 295.995 -0.53784 298.783 2.48566C333.609 40.3214 350.619 81.8775 350.994 123.133C351.382 165.437 334.269 207.202 300.945 244.121ZM260.569 208.78C257.764 211.787 252.919 212.069 249.751 209.404C246.581 206.744 246.284 202.142 249.091 199.135C272.118 174.432 283.892 148.644 283.435 122.894C282.992 97.8491 270.944 72.4463 246.381 47.6998C243.476 44.7685 243.624 40.1587 246.712 37.4009C249.797 34.6432 254.656 34.7842 257.561 37.7155C284.852 65.2198 298.249 93.9308 298.76 122.666C299.28 152.169 286.186 181.292 260.569 208.78ZM225.377 174.516C222.703 177.634 217.873 178.109 214.588 175.573C211.303 173.038 210.806 168.45 213.477 165.331C225.034 151.822 231.047 137.469 231.093 123.154C231.138 109.173 225.494 94.9639 213.768 81.3297C211.095 78.214 211.594 73.6259 214.882 71.0905C218.17 68.5551 222.998 69.0269 225.668 72.1481C239.716 88.4776 246.475 105.819 246.421 123.157C246.364 140.905 239.179 158.381 225.377 174.516ZM183.195 149.764L183.195 269.698C183.195 273.73 179.75 277 175.503 277C171.255 277 167.813 273.73 167.813 269.698L167.813 149.758C162.934 148.478 158.575 146.016 155.096 142.716C149.872 137.754 146.638 130.901 146.638 123.333C146.638 115.765 149.872 108.913 155.096 103.953C160.323 98.9934 167.542 95.9238 175.511 95.9238C183.487 95.9238 190.702 98.9934 195.93 103.953C201.154 108.913 204.388 115.765 204.388 123.333C204.388 130.901 201.154 137.754 195.93 142.716C192.445 146.022 188.08 148.487 183.195 149.764Z" fill="#CBCBCB"/>
</svg>
