<svg width="25" height="25" viewBox="0 0 25 25" fill="none" xmlns="http://www.w3.org/2000/svg">
<path d="M8.12498 2.08301H16.875C20.2083 2.08301 22.9166 4.79134 22.9166 8.12468V16.8747C22.9166 18.477 22.2801 20.0137 21.1471 21.1468C20.0141 22.2798 18.4773 22.9163 16.875 22.9163H8.12498C4.79165 22.9163 2.08331 20.208 2.08331 16.8747V8.12468C2.08331 6.52233 2.71984 4.9856 3.85288 3.85257C4.98591 2.71954 6.52263 2.08301 8.12498 2.08301ZM7.91665 4.16634C6.92208 4.16634 5.96826 4.56143 5.265 5.26469C4.56173 5.96795 4.16665 6.92178 4.16665 7.91634V17.083C4.16665 19.1559 5.84373 20.833 7.91665 20.833H17.0833C18.0779 20.833 19.0317 20.4379 19.735 19.7347C20.4382 19.0314 20.8333 18.0776 20.8333 17.083V7.91634C20.8333 5.84342 19.1562 4.16634 17.0833 4.16634H7.91665ZM17.9687 5.72884C18.3141 5.72884 18.6453 5.86602 18.8894 6.11021C19.1336 6.3544 19.2708 6.68559 19.2708 7.03092C19.2708 7.37626 19.1336 7.70745 18.8894 7.95164C18.6453 8.19583 18.3141 8.33301 17.9687 8.33301C17.6234 8.33301 17.2922 8.19583 17.048 7.95164C16.8038 7.70745 16.6666 7.37626 16.6666 7.03092C16.6666 6.68559 16.8038 6.3544 17.048 6.11021C17.2922 5.86602 17.6234 5.72884 17.9687 5.72884ZM12.5 7.29134C13.8813 7.29134 15.2061 7.84008 16.1828 8.81683C17.1596 9.79358 17.7083 11.1183 17.7083 12.4997C17.7083 13.881 17.1596 15.2058 16.1828 16.1825C15.2061 17.1593 13.8813 17.708 12.5 17.708C11.1186 17.708 9.79388 17.1593 8.81713 16.1825C7.84038 15.2058 7.29165 13.881 7.29165 12.4997C7.29165 11.1183 7.84038 9.79358 8.81713 8.81683C9.79388 7.84008 11.1186 7.29134 12.5 7.29134ZM12.5 9.37467C11.6712 9.37467 10.8763 9.70391 10.2903 10.29C9.70422 10.876 9.37498 11.6709 9.37498 12.4997C9.37498 13.3285 9.70422 14.1233 10.2903 14.7094C10.8763 15.2954 11.6712 15.6247 12.5 15.6247C13.3288 15.6247 14.1236 15.2954 14.7097 14.7094C15.2957 14.1233 15.625 13.3285 15.625 12.4997C15.625 11.6709 15.2957 10.876 14.7097 10.29C14.1236 9.70391 13.3288 9.37467 12.5 9.37467Z" fill="white"/>
</svg>
