<svg width="289" height="64" viewBox="0 0 289 64" fill="none" xmlns="http://www.w3.org/2000/svg">
<path d="M8.77462 3.53957C8.77491 3.73527 8.77519 3.93097 8.77548 4.1326C8.78256 8.90447 8.79406 13.6763 8.81014 18.4482C8.81781 20.7558 8.82407 23.0635 8.82696 25.3712C8.82948 27.3836 8.8347 29.3961 8.84311 31.4085C8.84746 32.4731 8.8505 33.5377 8.85031 34.6023C8.85016 35.6065 8.85366 36.6107 8.85982 37.6149C8.86145 37.9813 8.86181 38.3478 8.86072 38.7143C8.85368 41.4431 9.02816 44.1937 10.4765 46.6383C10.5437 46.7567 10.6108 46.8751 10.68 46.9971C12.9809 50.9744 16.3944 53.6855 21.0653 54.9898C25.2714 56.0577 29.7892 55.313 33.5859 53.4263C35.8397 52.1929 38.2531 50.4204 39.3743 48.1561C39.9316 47.5727 40.0144 47.5603 40.8064 47.517C41.1947 47.5171 41.5829 47.5232 41.971 47.5341C42.1757 47.5356 42.3803 47.5372 42.5912 47.5387C43.2447 47.5448 43.8977 47.5583 44.551 47.5721C44.9941 47.5775 45.4372 47.5824 45.8803 47.5868C46.9663 47.5987 48.052 47.6168 49.1377 47.6396C49.0488 47.8453 49.0488 47.8453 48.9581 48.0552C48.812 48.3977 48.672 48.7425 48.5365 49.0887C48.075 50.2585 47.5967 51.3049 46.8202 52.3196C46.7047 52.4727 46.5892 52.6258 46.4702 52.7836C42.1957 58.355 36.8179 62.0252 29.5114 63.2883C26.2566 63.7748 22.5709 63.8175 19.3965 62.9396C19.1961 62.8859 19.1961 62.8859 18.9917 62.8312C14.727 61.6723 10.1891 59.6163 7.42275 56.2796C7.20168 56.0791 7.20168 56.0791 6.97615 55.8746C3.01238 52.0943 0.275927 46.3059 0.239603 40.9942C0.237939 40.8539 0.236276 40.7136 0.234561 40.569C0.229284 40.1006 0.225363 39.6322 0.221486 39.1638C0.218062 38.8273 0.214585 38.4908 0.21106 38.1542C0.180418 35.0888 0.164076 32.0232 0.151193 28.9577C0.141479 26.6925 0.124857 24.4275 0.0993155 22.1624C0.0819469 20.5684 0.0726995 18.9745 0.0693887 17.3805C0.0671741 16.4288 0.0613154 15.4774 0.0466095 14.5258C0.0329227 13.6307 0.0292914 12.736 0.0333067 11.8408C0.0330311 11.5128 0.0291295 11.1848 0.0212865 10.8569C-0.034885 8.38077 -0.034885 8.38077 0.741772 7.53143C1.27957 7.16109 1.80243 6.87393 2.4015 6.59957C2.63734 6.46076 2.8718 6.31985 3.10384 6.17558C3.29827 6.06676 3.4927 5.95794 3.69302 5.84582C4.37696 5.46169 5.05423 5.07417 5.72083 4.66457C6.5884 4.15595 7.73102 3.53957 8.77462 3.53957Z" fill="#29AB73"/>
<path d="M32.6859 0.715822C32.8881 0.75621 33.0902 0.796597 33.2985 0.838209C36.6069 1.50802 39.9004 2.33656 42.9577 3.71957C43.1215 3.79034 43.2853 3.86111 43.4541 3.93402C46.1617 5.14078 48.7318 6.64615 51.069 8.39957C51.2661 8.54668 51.4633 8.69379 51.6665 8.84535C57.176 13.0354 61.3564 18.3437 64.1773 24.4083C64.251 24.566 64.3247 24.7237 64.4006 24.8861C64.7639 25.6844 65.0657 26.4606 65.2721 27.3062C65.4316 27.9456 65.6415 28.572 65.843 29.2008C65.9256 29.4598 66.0081 29.7188 66.0905 29.9778C66.1265 30.0902 66.1624 30.2026 66.1995 30.3185C66.262 30.517 66.262 30.517 66.3259 30.7196C66.391 30.9166 66.4562 31.1137 66.5234 31.3167C66.7088 31.9678 66.8067 32.5775 66.8766 33.2473C66.8889 33.3643 66.9012 33.4812 66.9139 33.6017C66.9395 33.8477 66.9644 34.0939 66.9888 34.34C67.0255 34.7094 67.0648 35.0786 67.1044 35.4477C67.1292 35.6892 67.1538 35.9308 67.1783 36.1723C67.2001 36.3867 67.2219 36.6012 67.2444 36.8221C67.3059 37.7864 67.2915 38.7536 67.2915 39.7196C64.4873 39.7196 61.6831 39.7196 58.794 39.7196C58.7541 38.8843 58.7143 38.0489 58.6733 37.1883C58.5197 34.6834 58.0935 32.3885 57.249 29.9996C57.2021 29.865 57.1552 29.7304 57.107 29.5918C55.8435 26.0411 53.8395 22.6094 51.2621 19.7396C51.0951 19.5486 50.9281 19.3576 50.7612 19.1665C49.782 18.0559 48.7995 17.0419 47.5927 16.1396C47.4346 16.0147 47.2766 15.8899 47.1137 15.7613C45.1541 14.2275 43.1113 12.9076 40.8334 11.8196C40.6032 11.7037 40.3731 11.5877 40.1431 11.4715C38.3292 10.5724 36.4918 9.94768 34.5185 9.42099C34.2162 9.33842 33.9153 9.25131 33.6159 9.16022C32.3632 8.78426 31.1313 8.59376 29.8252 8.45582C29.6142 8.43303 29.4031 8.41023 29.1856 8.38674C27.3932 8.20513 25.6385 8.15233 23.8384 8.21957C23.6056 8.22723 23.3728 8.23489 23.133 8.24278C21.7593 8.31047 20.4349 8.49563 19.0905 8.75663C18.3886 8.89135 17.8064 8.93957 17.079 8.93957C17.079 6.32597 17.079 3.71237 17.079 1.01957C22.0765 -0.250753 27.6184 -0.313117 32.6859 0.715822Z" fill="white"/>
<path d="M83.0483 10.44C96.9038 10.44 96.9038 10.44 99.5469 12.6457C100.818 13.9627 101.113 15.3992 101.077 17.1218C100.944 18.4857 100.231 19.5114 99.2708 20.52C98.7307 20.8835 98.7307 20.8835 98.1604 21.2063C97.9702 21.3151 97.78 21.4239 97.584 21.536C97.4396 21.6165 97.2952 21.697 97.1465 21.78C97.3297 21.806 97.5129 21.832 97.7017 21.8588C99.0397 22.2143 100.228 23.351 100.924 24.4463C101.692 26.0316 101.664 28.094 101.069 29.7338C100.723 30.4865 100.353 30.9837 99.6571 31.5C99.5368 31.5903 99.4166 31.6805 99.2927 31.7735C94.6834 35.1367 88.817 33.48 83.0483 33.48C83.0483 25.8768 83.0483 18.2736 83.0483 10.44Z" fill="white"/>
<path d="M197.535 16.0988C198.222 16.5211 198.866 16.9752 199.503 17.46C199.503 16.7472 199.503 16.0344 199.503 15.3C201.16 15.3 202.817 15.3 204.524 15.3C204.524 21.2994 204.524 27.2988 204.524 33.48C202.867 33.48 201.21 33.48 199.503 33.48C199.503 32.7078 199.503 31.9356 199.503 31.14C199.284 31.3293 199.065 31.5187 198.839 31.7138C197.071 33.152 195.295 33.7242 192.961 33.7275C192.797 33.7319 192.634 33.7363 192.465 33.7409C190.419 33.7496 188.671 32.8091 187.167 31.5591C184.658 29.1162 184.31 26.1357 184.365 22.9212C184.422 21.6064 184.697 20.5922 185.405 19.44C185.486 19.2994 185.566 19.1588 185.65 19.0139C186.112 18.2673 186.648 17.6812 187.336 17.1C187.489 16.95 187.489 16.95 187.645 16.797C190.316 14.3345 194.475 14.3287 197.535 16.0988Z" fill="white"/>
<path d="M117.637 16.2077C118.109 16.5479 118.557 16.8782 118.97 17.28C118.97 17.3988 118.97 17.5176 118.97 17.64C119.097 17.64 119.225 17.64 119.356 17.64C119.356 16.8678 119.356 16.0956 119.356 15.3C120.949 15.3 122.542 15.3 124.184 15.3C124.184 21.2994 124.184 27.2988 124.184 33.48C122.591 33.48 120.997 33.48 119.356 33.48C119.292 32.7078 119.228 31.9356 119.163 31.14C118.995 31.3219 118.828 31.5038 118.656 31.6913C116.715 33.4397 114.8 33.8433 112.166 33.8097C109.91 33.7062 108.281 32.9143 106.746 31.3481C105.669 30.0803 104.995 28.7191 104.485 27.18C104.419 26.99 104.419 26.99 104.352 26.7961C103.583 24.1763 104.121 21.4482 105.362 19.0441C106.706 16.915 108.54 15.74 111.036 15.0117C113.357 14.597 115.662 14.9941 117.637 16.2077Z" fill="white"/>
<path d="M37.7434 19.0196C37.9233 19.1103 38.1033 19.201 38.2888 19.2945C39.574 19.9733 40.6837 20.8213 41.799 21.7196C41.9864 21.8658 42.1739 22.0119 42.367 22.1625C43.9801 23.468 45.2099 24.954 46.434 26.5796C46.5602 26.7445 46.6864 26.9095 46.8165 27.0795C47.386 27.8462 47.7841 28.5962 48.1721 29.4596C48.3121 29.7432 48.3121 29.7432 48.455 30.0326C49.2237 31.6156 49.7154 33.1646 50.1034 34.8596C50.1691 35.1404 50.1691 35.1404 50.2361 35.427C50.5435 36.9092 50.4896 38.1496 50.4896 39.7196C47.7492 39.7196 45.0087 39.7196 42.1852 39.7196C42.0896 39.0142 41.994 38.3088 41.8955 37.5821C41.2339 33.325 39.0711 29.6613 35.3534 27.0296C33.8807 26.1037 32.217 25.4499 30.5977 24.7796C30.4274 24.7088 30.2572 24.638 30.0817 24.5651C26.8723 23.5262 22.3926 23.7617 19.2953 25.0882C18.9334 25.2543 18.5763 25.4272 18.2196 25.6029C17.6584 25.8596 17.6584 25.8596 17.079 25.8596C17.079 23.0084 17.079 20.1572 17.079 17.2196C24.4137 15.4206 31.0122 15.5342 37.7434 19.0196Z" fill="white"/>
<path d="M155.277 15.48C155.496 15.574 155.715 15.668 155.941 15.7648C158.744 17.0044 160.385 18.6725 161.457 21.42C161.581 21.9436 161.636 22.3349 161.65 22.86C161.66 23.0714 161.67 23.2828 161.68 23.5006C161.763 26.038 161.401 28.1689 159.719 30.24C159.627 30.3581 159.536 30.4762 159.441 30.5979C157.981 32.3413 155.836 33.2801 153.539 33.66C150.591 33.8629 147.941 33.77 145.502 32.0597C143.515 30.4206 142.177 28.3985 141.951 25.92C141.786 23.1886 141.942 20.8392 143.69 18.54C143.817 18.3712 143.817 18.3712 143.948 18.199C146.419 15.2502 151.561 13.8124 155.277 15.48Z" fill="white"/>
<path d="M231.175 9.90001C238.518 9.90001 238.518 9.90001 241.604 11.16C241.765 11.2196 241.926 11.2793 242.092 11.3407C243.017 11.6927 243.763 12.1361 244.545 12.7139C244.899 12.9811 244.899 12.9811 245.382 13.2188C245.975 13.5731 246.421 14.0116 246.905 14.4858C247.193 14.7779 247.193 14.7779 247.591 14.94C247.591 13.2768 247.591 11.6136 247.591 9.90001C249.184 9.90001 250.777 9.90001 252.419 9.90001C252.419 17.8596 252.419 25.8192 252.419 34.02C250.826 34.02 249.232 34.02 247.591 34.02C247.594 33.5996 247.597 33.1792 247.601 32.7461C247.61 31.3508 247.61 29.9557 247.605 28.5604C247.603 27.7151 247.603 26.8701 247.611 26.0248C247.619 25.2077 247.618 24.391 247.611 23.5739C247.61 23.2635 247.612 22.9532 247.617 22.6428C247.645 20.8038 247.562 19.6145 246.123 18.2205C245.97 18.0883 245.817 17.9562 245.66 17.82C245.498 17.6698 245.335 17.5196 245.168 17.3649C242.613 15.0333 239.396 14.1106 236.003 13.32C236.003 20.151 236.003 26.982 236.003 34.02C234.41 34.02 232.817 34.02 231.175 34.02C231.175 26.0604 231.175 18.1008 231.175 9.90001Z" fill="white"/>
<path d="M270.905 16.6198C273.213 18.193 274.214 19.7973 274.944 22.3952C275.042 23.0414 275.043 23.6827 275.039 24.3338C275.039 24.464 275.04 24.5943 275.041 24.7286C275.039 25.6944 275.039 25.6944 274.821 26.1C270.233 26.1 265.644 26.1 260.916 26.1C261.283 27.6391 261.611 28.7358 262.968 29.7C264.211 30.1875 265.687 30.2897 266.985 29.9306C267.939 29.5162 268.552 28.9671 269.028 28.08C270.812 28.08 272.597 28.08 274.435 28.08C273.586 30.4541 272.341 32.0324 269.993 33.3C267.389 34.3794 263.973 34.4079 261.303 33.48C258.741 32.2752 257.308 30.5903 256.261 28.1152C255.352 25.3064 255.655 21.9211 257.135 19.3409C257.714 18.5037 258.417 17.7956 259.178 17.1C259.279 17.0072 259.379 16.9144 259.482 16.8188C262.434 14.5081 267.853 14.7501 270.905 16.6198Z" fill="white"/>
<path d="M209.159 9C210.752 9 212.345 9 213.987 9C213.987 11.7918 213.987 14.5836 213.987 17.46C214.115 17.46 214.242 17.46 214.373 17.46C214.417 17.356 214.461 17.2521 214.506 17.145C215.204 16.0305 216.645 15.4919 217.909 15.1038C220.375 14.5372 222.317 15.0649 224.476 16.1662C226.191 17.4675 227.349 19.1882 227.699 21.24C227.752 22.1795 227.744 23.1177 227.737 24.0581C227.736 24.3305 227.735 24.6029 227.735 24.8752C227.734 25.5878 227.73 26.3003 227.725 27.0129C227.721 27.7417 227.72 28.4705 227.718 29.1994C227.714 30.6263 227.707 32.0531 227.699 33.48C226.042 33.48 224.385 33.48 222.678 33.48C222.677 33.1405 222.676 32.8009 222.675 32.4511C222.672 31.3231 222.663 30.1952 222.652 29.0672C222.646 28.384 222.641 27.7009 222.64 27.0177C222.639 26.357 222.634 25.6965 222.625 25.0359C222.622 24.7852 222.622 24.5345 222.622 24.2838C222.627 22.735 222.519 21.4446 221.519 20.16C220.354 19.131 219.247 19.0157 217.702 19.0301C216.582 19.1196 215.927 19.5541 215.182 20.3287C214.506 21.2113 214.325 21.8751 214.312 22.9562C214.308 23.1904 214.304 23.4245 214.3 23.6658C214.298 23.9196 214.296 24.1734 214.293 24.4273C214.29 24.6883 214.286 24.9493 214.282 25.2104C214.272 25.8954 214.264 26.5804 214.257 27.2655C214.25 27.9653 214.24 28.6651 214.23 29.365C214.211 30.7366 214.195 32.1083 214.18 33.48C212.523 33.48 210.866 33.48 209.159 33.48C209.159 25.4016 209.159 17.3232 209.159 9Z" fill="white"/>
<path d="M165.32 9.18001C166.913 9.18001 168.506 9.18001 170.148 9.18001C170.211 13.635 170.275 18.09 170.341 22.68C171.779 20.9375 171.779 20.9375 173.214 19.1925C173.379 19.0009 173.545 18.8093 173.711 18.6181C174.078 18.1827 174.354 17.7452 174.623 17.2526C175.124 16.4198 175.582 15.7365 176.521 15.3C178.551 14.9627 180.658 15.135 182.701 15.3C182.451 15.8023 182.18 16.2019 181.789 16.6177C181.686 16.7279 181.583 16.8382 181.476 16.9518C181.367 17.0675 181.257 17.1833 181.144 17.3025C181.031 17.4229 180.918 17.5432 180.801 17.6673C180.17 18.3388 179.531 19.0039 178.887 19.665C178.145 20.4267 177.448 21.216 176.757 22.0177C176.215 22.6271 175.634 23.1983 175.041 23.7649C174.751 24.0952 174.751 24.0952 174.772 24.4575C175.082 25.0399 175.557 25.47 176.038 25.9313C176.781 26.6611 177.499 27.3951 178.174 28.1813C178.797 28.9034 179.444 29.594 180.118 30.2738C180.208 30.3644 180.298 30.455 180.39 30.5484C180.478 30.6366 180.565 30.7249 180.656 30.8159C181.087 31.2511 181.517 31.6877 181.94 32.13C182.042 32.2358 182.144 32.3416 182.249 32.4506C182.522 32.7776 182.701 33.1079 182.894 33.48C182.042 33.5203 181.191 33.5496 180.338 33.569C180.049 33.5771 179.76 33.5881 179.471 33.6022C177.087 33.7155 177.087 33.7155 176.212 33.1636C175.812 32.7494 175.491 32.3294 175.169 31.86C174.965 31.6143 174.759 31.37 174.55 31.1274C174.353 30.8846 174.157 30.6413 173.962 30.3975C172.788 28.9386 171.565 27.5258 170.341 26.1C170.277 28.5354 170.213 30.9708 170.148 33.48C168.554 33.48 166.961 33.48 165.32 33.48C165.32 25.461 165.32 17.442 165.32 9.18001Z" fill="white"/>
<path d="M30.5977 33.4196C32.0347 34.4653 33.2484 36.0881 33.6877 37.7396C33.7458 38.3629 33.7504 38.9817 33.748 39.6071C33.7511 39.7704 33.7543 39.9338 33.7575 40.1021C33.759 42.0948 32.8834 43.7518 31.4909 45.2546C31.3236 45.3882 31.1563 45.5219 30.9839 45.6596C30.8776 45.7459 30.7713 45.8322 30.6618 45.9211C28.6654 47.4404 26.5764 47.8946 24.052 47.6919C21.9986 47.4275 20.3105 46.2727 18.986 44.8496C17.3774 42.8584 16.7685 40.937 17.0205 38.4807C17.3373 36.4154 18.5438 34.7571 20.2414 33.4533C23.4784 31.2442 27.2949 31.356 30.5977 33.4196Z" fill="white"/>
<path d="M279.263 11.16C280.857 11.16 282.45 11.16 284.091 11.16C284.091 12.645 284.091 14.13 284.091 15.66C285.557 15.66 287.023 15.66 288.533 15.66C288.533 16.9074 288.533 18.1548 288.533 19.44C287.131 19.44 285.729 19.44 284.285 19.44C284.298 20.7855 284.315 22.1309 284.335 23.4764C284.342 23.9342 284.347 24.392 284.351 24.8498C284.358 25.5075 284.368 26.1651 284.379 26.8228C284.38 27.0278 284.381 27.2327 284.383 27.4439C284.388 27.7303 284.388 27.7303 284.394 28.0225C284.397 28.2743 284.397 28.2743 284.401 28.5312C284.492 29.0609 284.666 29.3117 285.057 29.7C285.445 29.8142 285.445 29.8142 285.874 29.8097C286.014 29.8152 286.153 29.8207 286.297 29.8264C286.474 29.8292 286.65 29.8321 286.831 29.835C287.393 29.8499 287.955 29.8647 288.533 29.88C288.533 31.1868 288.533 32.4936 288.533 33.84C286.876 33.84 285.219 33.84 283.512 33.84C283.512 33.7212 283.512 33.6024 283.512 33.48C283.313 33.4652 283.114 33.4503 282.909 33.435C282.078 33.2853 281.663 33.0625 281.001 32.58C280.75 32.4074 280.75 32.4074 280.494 32.2313C279.242 30.7259 279.152 28.7803 279.188 26.9459C279.19 26.6212 279.19 26.6212 279.191 26.29C279.195 25.6079 279.205 24.9259 279.215 24.2438C279.219 23.7775 279.222 23.3112 279.226 22.8449C279.234 21.7099 279.247 20.575 279.263 19.44C278.499 19.44 277.734 19.44 276.946 19.44C276.946 18.1332 276.946 16.8264 276.946 15.48C277.711 15.48 278.475 15.48 279.263 15.48C279.263 14.0544 279.263 12.6288 279.263 11.16Z" fill="white"/>
<path d="M139.827 14.94C139.827 16.5438 139.827 18.1476 139.827 19.8C138.367 19.9463 138.367 19.9463 137.915 19.9883C136.803 20.1091 135.861 20.3675 134.951 21.0038C133.887 22.3143 133.943 23.7477 133.935 25.3238C133.931 25.5574 133.928 25.7911 133.924 26.0319C133.915 26.6486 133.909 27.2652 133.904 27.8819C133.898 28.513 133.889 29.1441 133.881 29.7752C133.864 31.0101 133.851 32.245 133.84 33.48C132.247 33.48 130.654 33.48 129.012 33.48C129.012 27.4806 129.012 21.4812 129.012 15.3C130.605 15.3 132.199 15.3 133.84 15.3C133.84 16.1316 133.84 16.9632 133.84 17.82C133.968 17.82 134.095 17.82 134.226 17.82C134.275 17.7161 134.323 17.6121 134.372 17.505C135.134 16.2223 136.502 15.5138 137.94 15.0469C138.475 14.94 138.475 14.94 139.827 14.94Z" fill="white"/>
<path d="M116.543 19.44C117.851 20.1537 118.863 21.1656 119.271 22.5457C119.593 24.4145 119.578 26.1175 118.39 27.72C118.316 27.8267 118.242 27.9335 118.165 28.0434C117.431 28.9843 116.308 29.4737 115.107 29.7C113.45 29.8627 112.293 29.4872 110.907 28.665C109.525 27.3771 109.118 25.9434 109.024 24.165C109.052 22.6387 109.569 21.4364 110.666 20.2985C112.296 18.9002 114.486 18.5665 116.543 19.44Z" fill="#2B6F6F"/>
<path d="M197.192 19.6889C198.352 20.5789 199.32 21.6282 199.567 23.05C199.743 25.1032 199.492 26.8039 198.027 28.4323C196.982 29.3674 195.701 29.7186 194.276 29.7675C192.799 29.7142 191.751 29.3038 190.736 28.2909C189.52 26.7573 189.099 25.0914 189.267 23.22C189.645 21.6159 190.482 20.4112 191.911 19.4513C193.538 18.7543 195.687 18.7644 197.192 19.6889Z" fill="#2B6F6F"/>
<path d="M153.648 19.1939C154.924 19.7097 155.758 20.7584 156.424 21.8588C156.936 23.3535 156.905 25.5565 156.248 27.0148C155.566 28.2019 154.853 28.9886 153.51 29.5481C152.289 29.8851 150.892 29.9154 149.689 29.4863C147.994 28.5517 147.304 27.4681 146.78 25.74C146.734 25.2654 146.706 24.8189 146.707 24.345C146.707 24.2186 146.708 24.0922 146.708 23.9619C146.75 22.2956 147.364 21.022 148.651 19.8668C150.073 18.7832 151.922 18.7967 153.648 19.1939Z" fill="#2B6F6F"/>
<path d="M180.86 46.0649C181.156 46.24 181.156 46.24 181.349 46.42C181.413 46.1824 181.476 45.9448 181.542 45.7C182.116 45.7 182.689 45.7 183.28 45.7C183.28 48.1948 183.28 50.6896 183.28 53.26C182.707 53.26 182.133 53.26 181.542 53.26C181.542 52.963 181.542 52.666 181.542 52.36C181.391 52.4575 181.391 52.4575 181.237 52.5569C180.055 53.2514 179.069 53.4735 177.68 53.26C176.712 52.8426 176.048 52.1567 175.555 51.28C175.555 51.1018 175.555 50.9236 175.555 50.74C175.428 50.74 175.3 50.74 175.169 50.74C175.062 48.9478 175.159 47.6585 176.412 46.2513C177.814 45.1998 179.335 45.278 180.86 46.0649Z" fill="#2DAA75"/>
<path d="M155.277 46.42C155.277 46.1824 155.277 45.9448 155.277 45.7C155.851 45.7 156.424 45.7 157.015 45.7C157.015 48.1948 157.015 50.6896 157.015 53.26C156.442 53.26 155.868 53.26 155.277 53.26C155.213 52.963 155.15 52.666 155.084 52.36C154.968 52.4491 154.853 52.5382 154.734 52.63C154.312 52.9 154.312 52.9 153.732 52.9C153.732 53.0188 153.732 53.1376 153.732 53.26C151.674 53.3718 151.674 53.3718 150.763 52.9788C148.965 51.4226 148.965 51.4226 148.851 50.1473C148.812 48.7427 148.817 47.6909 149.87 46.6C150.001 46.4552 150.133 46.3104 150.268 46.1613C151.667 45.1098 153.898 45.6292 155.277 46.42Z" fill="#41AE80"/>
<path d="M104.871 45.8912C105.853 46.4818 106.725 47.3143 106.996 48.4C107.193 49.8014 106.862 50.8266 106.03 52C105.522 52.5841 105.075 53.0169 104.292 53.26C103.882 53.2817 103.471 53.2916 103.061 53.2937C102.844 53.2963 102.628 53.2989 102.405 53.3015C101.345 53.231 100.598 52.8772 99.8502 52.18C98.9249 50.9324 98.6199 49.7203 98.8846 48.22C99.2509 47.1833 99.8759 46.3756 100.911 45.8455C102.133 45.4783 103.654 45.4896 104.871 45.8912Z" fill="#3FAE7F"/>
<path d="M236.088 45.655C236.339 45.6504 236.589 45.6457 236.848 45.6409C237.744 45.7165 238.211 45.9653 238.848 46.5431C238.941 46.6472 239.034 46.7514 239.13 46.8588C239.271 47.0143 239.271 47.0143 239.416 47.1731C240.243 48.2241 240.219 49.2901 240.059 50.56C239.635 51.5846 238.784 52.5064 237.795 53.0997C236.633 53.5233 235.104 53.4409 233.976 52.99C232.778 51.8736 232.113 51.0306 232.093 49.435C232.088 49.2002 232.083 48.9654 232.078 48.7234C232.168 47.7504 232.543 47.0465 233.288 46.3638C233.381 46.2754 233.474 46.187 233.57 46.0959C234.308 45.5797 235.199 45.6649 236.088 45.655Z" fill="#34AB78"/>
<path d="M87.8765 23.58C88.8603 23.5614 89.8442 23.5429 90.8578 23.5237C91.1646 23.5156 91.4715 23.5074 91.7876 23.4989C93.2971 23.4852 94.602 23.5049 95.7946 24.48C96.5401 25.3073 96.6355 26.0249 96.6207 27.0773C96.5341 27.8253 96.2852 28.1983 95.7946 28.8C94.6711 29.629 93.8845 29.7229 92.4783 29.7176C92.2371 29.7171 91.9959 29.7167 91.7475 29.7162C91.4419 29.7146 91.1364 29.7129 90.8216 29.7112C89.3638 29.7057 89.3638 29.7057 87.8765 29.7C87.8765 27.6804 87.8765 25.6608 87.8765 23.58Z" fill="#2B6F6F"/>
<path d="M85.9452 45.52C86.6463 45.52 87.3473 45.52 88.0696 45.52C88.0696 45.6388 88.0696 45.7576 88.0696 45.88C88.2907 45.9078 88.2907 45.9078 88.5162 45.9363C89.0708 46.0685 89.2728 46.1809 89.6146 46.6C89.6146 46.7188 89.6146 46.8376 89.6146 46.96C89.7421 46.96 89.8695 46.96 90.0008 46.96C90.0526 46.8523 90.1044 46.7447 90.1578 46.6338C90.5245 46.004 90.812 45.748 91.5458 45.52C92.5631 45.4292 93.406 45.3991 94.3341 45.8238C94.9324 46.327 95.4324 46.8249 95.7946 47.5C95.8112 47.9184 95.8153 48.3372 95.8134 48.7558C95.8132 48.8791 95.8129 49.0025 95.8126 49.1296C95.8115 49.5239 95.8091 49.9182 95.8067 50.3125C95.8057 50.5797 95.8048 50.8469 95.804 51.1141C95.8019 51.7694 95.7986 52.4247 95.7946 53.08C95.2847 53.08 94.7749 53.08 94.2496 53.08C94.2438 52.8744 94.2438 52.8744 94.238 52.6647C94.2196 52.0418 94.1984 51.419 94.1772 50.7963C94.1712 50.5806 94.1652 50.3649 94.1591 50.1427C94.1479 49.8303 94.1479 49.8303 94.1364 49.5116C94.1304 49.3203 94.1243 49.1289 94.118 48.9318C94.0415 48.2709 93.9281 47.6941 93.3564 47.2638C92.6791 47.081 92.0506 47.0318 91.3527 47.14C90.8248 47.4807 90.6259 47.6916 90.4686 48.2715C90.3834 48.782 90.3467 49.2767 90.326 49.7929C90.3138 50.0809 90.3138 50.0809 90.3015 50.3747C90.2939 50.5732 90.2863 50.7717 90.2785 50.9763C90.2659 51.2792 90.2659 51.2792 90.2532 51.5883C90.2328 52.0855 90.213 52.5828 90.194 53.08C89.6841 53.08 89.1743 53.08 88.649 53.08C88.6451 52.9429 88.6413 52.8059 88.6374 52.6647C88.6189 52.0418 88.5978 51.419 88.5765 50.7963C88.5706 50.5806 88.5646 50.3649 88.5584 50.1427C88.551 49.9345 88.5435 49.7262 88.5358 49.5116C88.5267 49.2246 88.5267 49.2246 88.5174 48.9318C88.4539 48.3835 88.3417 47.9888 88.0696 47.5C87.4586 47.1203 87.2459 47.0782 86.5367 47.0613C86.3716 47.0541 86.2066 47.0469 86.0365 47.0395C85.3428 47.1855 85.1704 47.4932 84.7865 48.04C84.6637 48.612 84.6637 48.612 84.6688 49.2304C84.6626 49.4549 84.6563 49.6794 84.6499 49.9107C84.6458 50.2599 84.6458 50.2599 84.6416 50.6163C84.6359 50.8526 84.6302 51.0889 84.6243 51.3324C84.6106 51.9149 84.6004 52.4974 84.5933 53.08C84.0835 53.08 83.5736 53.08 83.0483 53.08C83.0483 50.6446 83.0483 48.2092 83.0483 45.7C83.5582 45.7 84.068 45.7 84.5933 45.7C84.5933 45.9376 84.5933 46.1752 84.5933 46.42C84.7089 46.3309 84.8244 46.2418 84.9434 46.15C85.3658 45.88 85.3658 45.88 85.9452 45.88C85.9452 45.7612 85.9452 45.6424 85.9452 45.52Z" fill="#32AA77"/>
<path d="M87.8765 14.22C89.1132 14.2033 89.1132 14.2033 90.375 14.1863C90.6314 14.1813 90.8878 14.1764 91.152 14.1714C92.792 14.1607 94.2578 14.223 95.517 15.2888C96.125 16.0307 96.1301 16.7664 96.073 17.6745C95.9522 18.3906 95.7749 18.7511 95.2152 19.26C93.7654 20.1481 92.2442 20.0647 90.5681 20.025C89.6799 20.0102 88.7916 19.9953 87.8765 19.98C87.8765 18.0792 87.8765 16.1784 87.8765 14.22Z" fill="#2B6F6F"/>
<path d="M122.899 46.1662C123.647 46.7608 124.071 47.5433 124.377 48.4C124.377 48.9346 124.377 49.4692 124.377 50.02C122.401 50.02 120.426 50.02 118.39 50.02C118.687 51.0124 118.687 51.0124 119.356 51.64C120.058 51.8583 120.549 51.8912 121.287 51.82C121.438 51.6715 121.59 51.523 121.746 51.37C122.319 50.8609 122.429 50.8583 123.182 50.8638C123.452 50.8781 123.722 50.8954 123.991 50.92C123.752 51.9601 123.187 52.5158 122.253 53.08C121.149 53.4284 119.945 53.3601 118.837 53.08C117.853 52.5263 117.021 51.7702 116.652 50.74C116.433 47.6992 116.433 47.6992 117.425 46.6C118.815 45.3687 121.249 45.2588 122.899 46.1662Z" fill="#33AA77"/>
<path d="M205.598 45.6775C205.728 45.6768 205.858 45.6761 205.992 45.6754C207.379 45.678 207.379 45.678 207.904 46.1289C209.103 47.4276 209.352 48.2325 209.352 50.02C207.376 50.02 205.401 50.02 203.365 50.02C203.703 51.1268 203.703 51.1268 204.524 51.82C205.127 51.9325 205.661 51.9427 206.262 51.82C206.421 51.6715 206.581 51.523 206.745 51.37C207.228 50.92 207.228 50.92 207.672 50.8602C208.107 50.8634 208.533 50.8805 208.966 50.92C208.727 51.9601 208.162 52.5158 207.228 53.08C206.124 53.4284 204.92 53.3601 203.812 53.08C202.828 52.5263 201.995 51.7702 201.627 50.74C201.598 50.2649 201.582 49.7977 201.579 49.3225C201.575 49.1951 201.571 49.0677 201.567 48.9365C201.559 47.9281 201.814 47.4011 202.489 46.6422C202.583 46.554 202.677 46.4658 202.774 46.375C202.867 46.285 202.96 46.1949 203.057 46.1022C203.801 45.5664 204.695 45.6759 205.598 45.6775Z" fill="#31AB77"/>
<path d="M218.429 45.7C218.939 45.7 219.449 45.7 219.974 45.7C220.538 47.49 221.044 49.2879 221.519 51.1C221.568 50.9364 221.618 50.7728 221.668 50.6043C221.967 49.6295 222.288 48.6608 222.605 47.6912C222.668 47.4995 222.731 47.3077 222.795 47.1101C222.949 46.64 223.103 46.17 223.257 45.7C223.831 45.7 224.404 45.7 224.995 45.7C225.218 46.3972 225.438 47.0948 225.659 47.7925C225.722 47.9895 225.785 48.1865 225.85 48.3895C225.94 48.6766 225.94 48.6766 226.032 48.9695C226.088 49.1449 226.144 49.3202 226.201 49.5008C226.35 50.0314 226.452 50.5579 226.54 51.1C227.17 49.3133 227.704 47.5493 228.085 45.7C228.659 45.7 229.232 45.7 229.823 45.7C229.437 47.1755 229.02 48.6398 228.568 50.0987C228.511 50.2875 228.454 50.4763 228.395 50.6707C228.339 50.853 228.282 51.0353 228.224 51.223C228.174 51.3856 228.124 51.5481 228.073 51.7155C227.872 52.232 227.673 52.6437 227.313 53.08C226.876 53.1679 226.876 53.1679 226.407 53.1362C226.251 53.1281 226.095 53.12 225.934 53.1116C225.756 53.096 225.756 53.096 225.575 53.08C225.535 52.9401 225.495 52.8002 225.454 52.6561C225.273 52.0248 225.092 51.3936 224.911 50.7625C224.848 50.5423 224.785 50.3221 224.72 50.0952C224.66 49.8852 224.599 49.6753 224.537 49.4589C224.482 49.2647 224.426 49.0705 224.369 48.8705C224.242 48.4086 224.242 48.4086 224.03 48.04C223.99 48.1799 223.95 48.3198 223.909 48.4639C223.728 49.0952 223.547 49.7264 223.366 50.3575C223.303 50.5777 223.24 50.7979 223.175 51.0248C223.115 51.2348 223.054 51.4447 222.992 51.6611C222.937 51.8553 222.881 52.0495 222.824 52.2495C222.678 52.72 222.678 52.72 222.485 53.08C221.911 53.08 221.337 53.08 220.746 53.08C220.132 51.3808 219.525 49.6794 218.936 47.9725C218.885 47.8282 218.835 47.6839 218.782 47.5353C218.736 47.3997 218.689 47.2642 218.642 47.1245C218.601 47.0056 218.559 46.8868 218.517 46.7643C218.429 46.42 218.429 46.42 218.429 45.7Z" fill="#36AB79"/>
<path d="M138.668 43C139.178 43 139.688 43 140.213 43C140.277 44.0692 140.341 45.1384 140.407 46.24C140.661 46.0618 140.916 45.8836 141.179 45.7C142.102 45.4134 143.006 45.341 143.927 45.6768C144.842 46.1643 145.484 46.7223 145.814 47.68C145.907 48.6081 145.887 49.5286 145.862 50.4588C145.858 50.7132 145.855 50.9676 145.852 51.222C145.843 51.8414 145.83 52.4607 145.814 53.08C145.304 53.08 144.794 53.08 144.269 53.08C144.265 52.9567 144.261 52.8334 144.257 52.7063C144.239 52.1408 144.218 51.5754 144.197 51.01C144.191 50.816 144.185 50.622 144.178 50.4222C144.136 49.3423 144.074 48.3447 143.69 47.32C143.14 47.1491 142.731 47.0934 142.157 47.0725C141.992 47.0637 141.827 47.0549 141.657 47.0458C140.958 47.1835 140.79 47.4907 140.407 48.04C140.284 48.6297 140.284 48.6297 140.289 49.2698C140.283 49.5024 140.276 49.735 140.27 49.9746C140.267 50.2185 140.264 50.4624 140.262 50.7063C140.256 50.9536 140.25 51.201 140.244 51.4484C140.231 52.0523 140.22 52.656 140.213 53.26C139.64 53.26 139.066 53.26 138.475 53.26C138.471 51.9488 138.467 50.6377 138.465 49.3265C138.464 48.7178 138.463 48.109 138.461 47.5002C138.458 46.801 138.457 46.1018 138.456 45.4026C138.455 45.183 138.454 44.9635 138.453 44.7372C138.453 44.5355 138.453 44.3337 138.453 44.1257C138.453 43.9471 138.452 43.7684 138.452 43.5843C138.475 43.18 138.475 43.18 138.668 43Z" fill="#38AF7C"/>
<path d="M250.102 43C250.675 43 251.249 43 251.84 43C251.903 44.8414 251.967 46.6828 252.033 48.58C253.294 47.1443 253.294 47.1443 254.543 45.7C255.126 45.6121 255.126 45.6121 255.75 45.6438C255.959 45.6519 256.167 45.66 256.381 45.6684C256.539 45.6788 256.698 45.6892 256.861 45.7C256.246 46.3713 255.628 47.0398 255.002 47.7025C254.511 48.2239 254.036 48.7532 253.578 49.3C253.842 49.8488 254.145 50.2371 254.593 50.6683C254.714 50.7862 254.835 50.904 254.959 51.0255C255.215 51.2716 255.47 51.5177 255.726 51.7638C255.846 51.8812 255.966 51.9986 256.09 52.1195C256.256 52.2795 256.256 52.2795 256.426 52.4427C256.668 52.72 256.668 52.72 256.668 53.08C255.921 53.2087 255.286 53.2423 254.543 53.08C253.834 52.5006 253.334 51.8233 252.805 51.1C252.55 50.803 252.295 50.506 252.033 50.2C251.969 51.2098 251.905 52.2196 251.84 53.26C251.266 53.26 250.692 53.26 250.102 53.26C250.102 49.8742 250.102 46.4884 250.102 43Z" fill="#2CAA74"/>
<path d="M196.413 45.52C196.413 45.6388 196.413 45.7576 196.413 45.88C196.556 45.9246 196.7 45.9691 196.847 46.015C197.688 46.3712 198.204 46.8806 198.537 47.68C198.581 48.274 198.581 48.274 198.575 48.9709C198.574 49.0938 198.574 49.2166 198.573 49.3432C198.571 49.7338 198.566 50.1244 198.561 50.515C198.559 50.7805 198.558 51.0461 198.556 51.3116C198.552 51.9611 198.545 52.6106 198.537 53.26C197.964 53.26 197.39 53.26 196.799 53.26C196.798 53.1066 196.797 52.9532 196.797 52.7951C196.791 52.223 196.782 51.6512 196.77 51.0792C196.765 50.8322 196.762 50.5852 196.761 50.3381C196.759 49.982 196.751 49.6258 196.742 49.2698C196.739 49.0558 196.736 48.8418 196.733 48.6214C196.571 47.8809 196.262 47.6097 195.64 47.14C195.193 47.0134 195.193 47.0134 194.747 47.05C194.528 47.0528 194.528 47.0528 194.305 47.0556C193.807 47.1599 193.633 47.308 193.323 47.68C193.11 48.2744 193.09 48.7494 193.069 49.3752C193.06 49.6009 193.052 49.8265 193.044 50.059C193.036 50.2949 193.029 50.5307 193.021 50.7738C193.013 51.0141 193.004 51.2545 192.996 51.4948C192.975 52.0832 192.955 52.6716 192.936 53.26C192.363 53.26 191.789 53.26 191.198 53.26C191.198 50.7652 191.198 48.2704 191.198 45.7C191.772 45.7 192.346 45.7 192.936 45.7C193 45.8782 193.064 46.0564 193.13 46.24C193.241 46.1212 193.353 46.0024 193.468 45.88C194.413 45.338 195.33 45.4621 196.413 45.52Z" fill="#29AA72"/>
<path d="M160.491 45.7C161.065 45.7 161.639 45.7 162.23 45.7C162.293 45.8782 162.357 46.0564 162.423 46.24C162.55 46.1212 162.678 46.0024 162.809 45.88C163.987 45.6122 165.328 45.4599 166.442 45.9813C167.137 46.4388 167.568 46.9217 167.83 47.68C167.924 48.6379 167.903 49.5887 167.878 50.5488C167.875 50.8118 167.871 51.0749 167.868 51.338C167.859 51.9788 167.846 52.6194 167.83 53.26C167.32 53.26 166.811 53.26 166.285 53.26C166.282 53.1047 166.28 52.9494 166.277 52.7894C166.265 52.2127 166.251 51.6361 166.235 51.0594C166.228 50.81 166.223 50.5605 166.218 50.311C166.212 49.9521 166.201 49.5934 166.191 49.2346C166.186 49.0188 166.181 48.8029 166.176 48.5805C166.085 47.9946 165.986 47.8639 165.513 47.5C165.513 47.3812 165.513 47.2624 165.513 47.14C165.143 47.1156 164.773 47.0982 164.402 47.0838C164.196 47.0733 163.99 47.0629 163.778 47.0521C163.17 47.0903 163.17 47.0903 162.78 47.5186C162.348 48.1483 162.319 48.527 162.305 49.2698C162.299 49.5024 162.293 49.735 162.286 49.9747C162.283 50.2185 162.281 50.4624 162.278 50.7063C162.272 50.9536 162.267 51.201 162.261 51.4484C162.247 52.0523 162.237 52.656 162.23 53.26C161.656 53.26 161.082 53.26 160.491 53.26C160.491 50.7652 160.491 48.2704 160.491 45.7Z" fill="#3AAD7C"/>
<path d="M268.024 19.7002C269.052 20.3783 269.717 21.1592 269.993 22.32C269.993 22.5576 269.993 22.7952 269.993 23.04C266.998 23.04 264.003 23.04 260.916 23.04C261.103 21.4723 261.182 21.0182 262.268 19.98C263.979 18.7365 266.148 18.705 268.024 19.7002Z" fill="#2B6F6F"/>
<path d="M212.635 43.72C213.145 43.72 213.655 43.72 214.18 43.72C214.18 44.3734 214.18 45.0268 214.18 45.7C214.818 45.7 215.455 45.7 216.111 45.7C216.111 46.0564 216.111 46.4128 216.111 46.78C215.538 46.8394 214.964 46.8988 214.373 46.96C214.362 47.7025 214.355 48.445 214.349 49.1875C214.346 49.3991 214.343 49.6107 214.339 49.8288C214.338 50.1316 214.338 50.1316 214.336 50.4405C214.333 50.7204 214.333 50.7204 214.33 51.006C214.324 51.4908 214.324 51.4908 214.76 51.82C215.208 51.8921 215.659 51.9531 216.111 52C216.111 52.3564 216.111 52.7128 216.111 53.08C213.998 53.2214 213.998 53.2214 213.178 52.6525C212.651 51.9406 212.612 51.5854 212.616 50.7217C212.617 50.5036 212.618 50.2855 212.618 50.0608C212.62 49.832 212.622 49.6032 212.623 49.3675C212.624 49.1373 212.625 48.9072 212.626 48.67C212.628 48.1 212.631 47.53 212.635 46.96C212.317 46.96 211.998 46.96 211.67 46.96C211.67 46.5442 211.67 46.1284 211.67 45.7C211.988 45.7 212.307 45.7 212.635 45.7C212.635 45.0466 212.635 44.3932 212.635 43.72Z" fill="#38AC7B"/>
<path d="M236.304 46.9087C237.135 46.9991 237.543 47.2964 238.092 47.86C238.447 48.6963 238.448 49.4932 238.321 50.38C237.925 51.1316 237.6 51.5087 236.776 51.82C236.116 51.9241 235.503 51.9372 234.845 51.82C234.291 51.4394 233.992 50.9513 233.686 50.38C233.561 49.1394 233.661 48.2089 234.516 47.2054C235.068 46.7928 235.624 46.8874 236.304 46.9087Z" fill="#2B6F6F" fill-opacity="0.980392"/>
<path d="M179.997 46.96C180.639 47.2616 181.212 47.605 181.542 48.22C181.576 48.5979 181.594 48.9771 181.602 49.3562C181.61 49.5597 181.617 49.7632 181.624 49.9729C181.525 50.6841 181.312 50.9598 180.77 51.46C180.061 51.8923 179.378 51.9396 178.546 51.9212C177.961 51.7978 177.751 51.6367 177.366 51.2125C176.785 50.3519 176.755 49.5679 176.907 48.58C177.062 47.9755 177.248 47.7271 177.692 47.2637C178.476 46.8438 179.113 46.7926 179.997 46.96Z" fill="#2B6F6F"/>
<path d="M153.925 46.96C153.925 47.0788 153.925 47.1976 153.925 47.32C154.041 47.3311 154.156 47.3423 154.275 47.3538C154.698 47.5 154.698 47.5 155.036 47.8488C155.472 48.8447 155.422 49.8099 155.048 50.8188C154.636 51.3608 154.397 51.5774 153.732 51.82C152.986 51.9356 152.31 51.9799 151.631 51.6365C151.115 51.2526 150.852 50.9671 150.642 50.38C150.429 48.4961 150.429 48.4961 150.826 47.6463C151.649 46.7292 152.738 46.8537 153.925 46.96Z" fill="#2B6F6F"/>
<path d="M103.214 46.8707C104.033 47.0174 104.536 47.4583 105.065 48.04C105.421 48.7051 105.324 49.4726 105.258 50.2C105.021 50.8377 104.812 51.167 104.28 51.6175C103.442 51.9166 102.666 51.9675 101.781 51.82C101.135 51.3652 100.878 51.0929 100.623 50.38C100.446 48.3351 100.446 48.3351 101.202 47.5C101.285 47.4056 101.369 47.3111 101.455 47.2138C102 46.7905 102.53 46.8548 103.214 46.8707Z" fill="#2B6F6F"/>
<path d="M132.102 43.9C132.548 43.9 132.994 43.9 133.454 43.9C133.454 44.494 133.454 45.088 133.454 45.7C134.155 45.7 134.856 45.7 135.578 45.7C135.578 46.1158 135.578 46.5316 135.578 46.96C134.941 46.96 134.304 46.96 133.647 46.96C133.674 47.6988 133.703 48.4375 133.732 49.1763C133.739 49.3864 133.747 49.5965 133.755 49.8129C133.767 50.1149 133.767 50.1149 133.779 50.4229C133.786 50.6086 133.793 50.7943 133.801 50.9856C133.821 51.4794 133.821 51.4794 134.033 52C134.479 52 134.926 52 135.385 52C135.385 52.3564 135.385 52.7128 135.385 53.08C135.019 53.1045 134.653 53.1218 134.287 53.1363C134.083 53.1467 133.879 53.1571 133.669 53.1679C132.855 53.0489 132.616 52.7707 132.102 52.18C131.975 51.5987 131.975 51.5987 131.966 50.9502C131.957 50.6013 131.957 50.6013 131.949 50.2454C131.947 50.0015 131.946 49.7576 131.945 49.5138C131.941 49.2664 131.936 49.019 131.93 48.7716C131.919 48.1677 131.912 47.564 131.909 46.96C131.718 46.9006 131.527 46.8412 131.33 46.78C131.33 46.483 131.33 46.186 131.33 45.88C131.585 45.88 131.839 45.88 132.102 45.88C132.102 45.2266 132.102 44.5732 132.102 43.9Z" fill="#33AA77"/>
<path d="M243.149 45.7C243.723 45.7 244.296 45.7 244.887 45.7C244.951 45.9376 245.015 46.1752 245.08 46.42C245.18 46.3012 245.279 46.1824 245.382 46.06C246.007 45.5819 246.418 45.6436 247.205 45.7C247.205 46.1752 247.205 46.6504 247.205 47.14C246.997 47.1548 246.79 47.1697 246.577 47.185C245.767 47.3359 245.57 47.4394 245.08 48.04C244.956 48.613 244.956 48.613 244.963 49.2522C244.956 49.4854 244.95 49.7186 244.944 49.9588C244.941 50.2042 244.938 50.4496 244.935 50.695C244.93 50.9432 244.924 51.1914 244.918 51.4396C244.904 52.0464 244.894 52.6531 244.887 53.26C244.314 53.26 243.74 53.26 243.149 53.26C243.149 50.7652 243.149 48.2704 243.149 45.7Z" fill="#2BA873"/>
<path d="M114.141 45.52C114.141 46.0546 114.141 46.5892 114.141 47.14C113.777 47.1623 113.777 47.1623 113.405 47.185C112.744 47.2615 112.744 47.2615 112.222 47.6463C111.856 48.3498 111.794 48.9981 111.763 49.7753C111.751 50.0642 111.751 50.0642 111.738 50.3589C111.731 50.5589 111.723 50.7589 111.715 50.965C111.707 51.1678 111.699 51.3706 111.69 51.5795C111.67 52.0797 111.65 52.5798 111.631 53.08C111.121 53.08 110.611 53.08 110.086 53.08C110.086 50.6446 110.086 48.2092 110.086 45.7C110.596 45.7 111.106 45.7 111.631 45.7C111.631 45.997 111.631 46.294 111.631 46.6C111.758 46.6 111.886 46.6 112.017 46.6C112.069 46.4886 112.121 46.3773 112.174 46.2625C112.657 45.4562 113.239 45.4826 114.141 45.52Z" fill="#28AA72"/>
<path d="M191.391 45.88C191.838 45.88 192.284 45.88 192.743 45.88C192.743 46.1176 192.743 46.3552 192.743 46.6C192.998 46.6 193.253 46.6 193.516 46.6C193.371 47.635 193.371 47.635 192.936 48.04C192.865 48.5641 192.865 48.5641 192.857 49.1777C192.849 49.4039 192.842 49.6301 192.834 49.8632C192.825 50.2193 192.825 50.2193 192.816 50.5825C192.808 50.8237 192.801 51.0649 192.793 51.306C192.775 51.8973 192.758 52.4886 192.743 53.08C192.297 53.08 191.851 53.08 191.391 53.08C191.391 50.704 191.391 48.328 191.391 45.88Z" fill="#2CA873"/>
<path d="M206.102 46.8595C206.676 46.9652 206.893 47.0524 207.276 47.455C207.614 48.04 207.614 48.04 207.614 48.76C206.212 48.76 204.81 48.76 203.365 48.76C203.365 47.86 203.365 47.86 203.703 47.3538C204.525 46.8382 205.127 46.8225 206.102 46.8595Z" fill="#2B6F6F"/>
<path d="M121.287 46.96C121.989 47.2523 122.209 47.439 122.639 48.04C122.639 48.2776 122.639 48.5152 122.639 48.76C121.237 48.76 119.835 48.76 118.39 48.76C118.39 47.86 118.39 47.86 118.752 47.455C119.55 46.8426 120.285 46.8679 121.287 46.96Z" fill="#2B6F6F"/>
<path d="M223.257 45.7C223.831 45.7 224.404 45.7 224.995 45.7C224.995 45.7594 224.995 45.8188 224.995 45.88C224.485 45.88 223.976 45.88 223.45 45.88C223.428 46.7949 223.428 46.7949 223.643 47.68C223.898 47.6206 224.153 47.5612 224.416 47.5C225.303 49.954 225.303 49.954 225.188 51.1C225.125 51.1 225.061 51.1 224.995 51.1C224.942 50.9093 224.888 50.7185 224.833 50.522C224.762 50.2722 224.692 50.0223 224.621 49.7725C224.586 49.6467 224.551 49.521 224.514 49.3914C224.322 48.6989 224.322 48.6989 224.03 48.04C223.743 49.0201 223.743 49.0201 223.45 50.02C223.386 50.02 223.323 50.02 223.257 50.02C223.13 49.6636 223.002 49.3072 222.871 48.94C222.491 49.2943 222.55 49.9027 222.485 50.38C222.293 50.4394 222.102 50.4988 221.905 50.56C222.032 49.4699 222.342 48.4667 222.69 47.4212C222.771 47.1722 222.771 47.1722 222.855 46.9182C222.988 46.5119 223.122 46.1059 223.257 45.7Z" fill="#3FAC7E"/>
<path d="M114.141 45.52C114.141 46.0546 114.141 46.5892 114.141 47.14C113.566 47.1927 113.566 47.1927 112.991 47.2455C112.539 47.3068 112.539 47.3068 112.017 47.68C111.953 47.4424 111.89 47.2048 111.824 46.96C111.951 46.9006 112.079 46.8412 112.21 46.78C112.338 46.8394 112.465 46.8988 112.596 46.96C112.596 46.7818 112.596 46.6036 112.596 46.42C112.405 46.4794 112.214 46.5388 112.017 46.6C112.48 45.6037 113.017 45.4734 114.141 45.52Z" fill="#2AA772"/>
<path d="M203.365 50.92C203.529 51.0648 203.692 51.2096 203.86 51.3587C204.495 51.8589 205.043 51.9534 205.876 52C205.876 52.0594 205.876 52.1188 205.876 52.18C205.493 52.18 205.111 52.18 204.717 52.18C204.717 52.2988 204.717 52.4176 204.717 52.54C204.335 52.5994 203.952 52.6588 203.558 52.72C203.562 52.5566 203.566 52.3933 203.57 52.225C203.56 51.7432 203.516 51.3754 203.365 50.92Z" fill="#3AAB7B"/>
<path d="M220.553 48.76C220.628 49.112 220.7 49.4646 220.771 49.8175C220.811 50.0138 220.851 50.2101 220.893 50.4124C220.908 50.5799 220.924 50.7474 220.94 50.92C220.812 51.0388 220.685 51.1576 220.553 51.28C220.553 51.1612 220.553 51.0424 220.553 50.92C220.426 50.92 220.298 50.92 220.167 50.92C220.087 50.6623 220.011 50.4033 219.938 50.1438C219.895 49.9997 219.853 49.8556 219.809 49.7071C219.781 49.3 219.781 49.3 220.049 48.9773C220.36 48.76 220.36 48.76 220.553 48.76Z" fill="#26AA72"/>
<path d="M179.804 52.36C179.74 52.4788 179.677 52.5976 179.611 52.72C179.738 52.72 179.866 52.72 179.997 52.72C179.997 52.8388 179.997 52.9576 179.997 53.08C179.424 53.08 178.85 53.08 178.259 53.08C178.323 52.8424 178.386 52.6048 178.452 52.36C179.057 52.172 179.223 52.1918 179.804 52.36Z" fill="#2CA972"/>
<path d="M38.3227 58.6196C38.96 58.679 39.5973 58.7384 40.254 58.7996C39.7976 59.2542 39.5462 59.4994 38.9021 59.6996C38.4796 59.4408 38.4796 59.4408 38.1296 59.1596C38.1933 58.9814 38.257 58.8032 38.3227 58.6196Z" fill="#35A978"/>
<path d="M8.38831 3.53957C8.45204 3.77717 8.51577 4.01477 8.58144 4.25957C8.47787 4.28184 8.37431 4.30412 8.26761 4.32707C7.78322 4.43816 7.78322 4.43816 7.22956 4.64207C6.6336 4.80407 6.44646 4.7818 5.87769 4.61957C6.18725 4.47287 6.49711 4.32672 6.8071 4.18082C6.97962 4.09937 7.15214 4.01793 7.32989 3.93402C7.80894 3.71957 7.80894 3.71957 8.38831 3.53957Z" fill="#50B087"/>
<path d="M181.349 52C181.54 52 181.731 52 181.928 52C181.992 52.1782 182.056 52.3564 182.121 52.54C182.313 52.54 182.504 52.54 182.701 52.54C182.828 52.4212 182.956 52.3024 183.087 52.18C183.087 52.477 183.087 52.774 183.087 53.08C182.641 53.08 182.195 53.08 181.735 53.08C181.735 52.783 181.735 52.486 181.735 52.18C181.608 52.1206 181.48 52.0612 181.349 52Z" fill="#37A779"/>
<path d="M201.627 49.66C201.818 49.7491 201.818 49.7491 202.013 49.84C202.081 50.1394 202.145 50.4395 202.206 50.74C202.398 51.0073 202.398 51.0073 202.593 51.28C202.529 51.4582 202.465 51.6364 202.4 51.82C202.005 51.5155 201.836 51.3453 201.721 50.8729C201.71 50.7288 201.699 50.5847 201.687 50.4363C201.675 50.2908 201.662 50.1453 201.649 49.9954C201.642 49.8847 201.635 49.774 201.627 49.66Z" fill="#47AB81"/>
<path d="M196.606 46.42C197.004 46.4987 197.004 46.4987 197.378 46.6C197.378 46.7782 197.378 46.9564 197.378 47.14C197.251 47.14 197.123 47.14 196.992 47.14C196.928 47.3182 196.865 47.4964 196.799 47.68C196.608 47.5018 196.417 47.3236 196.22 47.14C196.413 46.6 196.413 46.6 196.606 46.42Z" fill="#25AB71"/>
<path d="M154.698 51.64C154.953 51.6994 155.208 51.7588 155.47 51.82C155.47 52.2358 155.47 52.6516 155.47 53.08C155.343 52.8424 155.215 52.6048 155.084 52.36C154.702 52.5382 154.702 52.5382 154.311 52.72C154.311 52.6012 154.311 52.4824 154.311 52.36C154.439 52.36 154.566 52.36 154.698 52.36C154.698 52.1224 154.698 51.8848 154.698 51.64Z" fill="#4BB185"/>
<path d="M20.7484 55.0196C22.3002 55.1642 22.3002 55.1642 23.0659 55.5596C22.7884 55.5742 22.5107 55.5846 22.233 55.5933C22.0011 55.6027 22.0011 55.6027 21.7645 55.6123C21.2353 55.5484 21.0783 55.3987 20.7484 55.0196Z" fill="#47A980"/>
<path d="M15.3408 52.4996C15.9113 52.7465 16.3914 53.0375 16.8858 53.3996C16.4397 53.3402 15.9936 53.2808 15.5339 53.2196C15.4702 52.982 15.4065 52.7444 15.3408 52.4996Z" fill="#47AA7E"/>
</svg>
