<svg width="50" height="50" viewBox="0 0 50 50" fill="none" xmlns="http://www.w3.org/2000/svg">
<path d="M25.0102 45.8389C13.5043 45.8389 4.17683 36.5116 4.17683 25.0056C4.17683 13.4998 13.5043 4.17236 25.0102 4.17236C36.516 4.17236 45.8435 13.4998 45.8435 25.0056C45.8435 36.5116 36.516 45.8389 25.0102 45.8389ZM25.0102 41.6723C34.215 41.6723 41.6769 34.2104 41.6769 25.0056C41.6769 15.8009 34.215 8.33903 25.0102 8.33903C15.8054 8.33903 8.3435 15.8009 8.3435 25.0056C8.3435 34.2104 15.8054 41.6723 25.0102 41.6723ZM17.7185 29.1723H29.1769C29.7521 29.1723 30.2185 28.706 30.2185 28.1306C30.2185 27.5554 29.7521 27.0889 29.1769 27.0889H20.8435C17.967 27.0889 15.6352 24.7573 15.6352 21.8806C15.6352 19.0042 17.967 16.6724 20.8435 16.6724H22.9269V12.5057H27.0935V16.6724H32.3019V20.8389H20.8435C20.2682 20.8389 19.8018 21.3054 19.8018 21.8806C19.8018 22.456 20.2682 22.9223 20.8435 22.9223H29.1769C32.0533 22.9223 34.3852 25.2541 34.3852 28.1306C34.3852 31.0073 32.0533 33.3389 29.1769 33.3389H27.0935V37.5056H22.9269V33.3389H17.7185V29.1723Z" fill="#FECC00"/>
</svg>
