<svg width="549" height="145" viewBox="0 0 549 145" fill="none" xmlns="http://www.w3.org/2000/svg">
<path d="M7.8981 144.049C8.3791 143.992 12.3722 143.339 25.6112 141.158C32.8034 139.971 145.847 121.357 153.497 120.098C157.528 119.436 160.995 118.859 161.208 118.816C161.819 118.698 162.85 118.348 163.384 118.078C164.446 117.543 165.316 116.696 165.69 115.845C165.927 115.3 165.927 114.208 165.69 113.678C165.453 113.143 164.98 112.575 164.392 112.135C164.064 111.884 157.651 108.161 146.091 101.499C136.303 95.8635 127.798 90.9522 127.179 90.5831L126.065 89.916L127.317 84.8533C128.79 78.8679 129.042 77.8412 130.554 71.6997C131.86 66.4241 131.829 66.6086 131.363 66.0172C130.844 65.3737 129.852 64.9621 128.714 64.9195C128.386 64.9053 127.966 64.9195 127.783 64.9479C127.492 64.9952 115.612 68.6384 102.793 72.6129L98.3573 73.985L96.9143 73.1523C91.7378 70.1667 87.6302 67.801 85.813 66.7506C70.6576 58.0067 59.2662 51.4631 58.8997 51.2928C58.3195 51.0231 57.3651 50.7439 56.594 50.6114C56.113 50.531 55.7847 50.5121 54.8914 50.5121C53.9217 50.5121 53.7003 50.5262 53.1277 50.6351C52.7612 50.706 52.2726 50.8149 52.0283 50.8811C50.6463 51.2596 49.2797 52.1018 48.6689 52.9582C48.5696 53.1002 47.0044 55.835 45.2026 59.0288C41.7974 65.0661 16.1362 110.507 13.7236 114.78C12.9677 116.119 12.2195 117.453 12.0592 117.737C11.8988 118.026 9.17314 122.852 5.99699 128.468C2.82847 134.085 0.179134 138.835 0.110419 139.029C-0.0499155 139.53 -0.0346456 140.311 0.148594 140.789C0.744122 142.341 2.70631 143.581 5.17241 143.978C5.92827 144.101 7.19568 144.134 7.8981 144.049ZM5.37855 142.79C3.92027 142.516 2.71395 141.792 2.14896 140.86C1.897 140.444 1.82829 139.601 2.00389 139.171C2.06497 139.015 6.83683 130.541 12.5936 120.34C18.3504 110.138 24.2828 99.6439 25.7639 97.0132C27.2451 94.3873 28.5812 92.0215 28.7263 91.7613C28.8714 91.501 33.773 82.8235 39.6138 72.4804C45.4545 62.1373 50.3638 53.5118 50.5165 53.3178C50.9136 52.8021 51.7992 52.2674 52.6772 51.9977C53.5247 51.7422 54.2653 51.6429 55.1586 51.676C56.4642 51.7233 57.4644 52.0072 58.5333 52.6223C58.8616 52.8116 63.3357 55.395 68.4816 58.3569C73.6276 61.3235 80.2929 65.1655 83.2935 66.8972C90.5009 71.0562 99.0674 75.9959 102.511 77.9831C104.038 78.8632 105.282 79.6013 105.282 79.6202C105.282 79.6392 104.778 79.9609 104.152 80.3394C101.152 82.1658 93.9977 86.5188 92.6082 87.361C91.7454 87.8862 88.3173 89.9728 84.9808 92.0026C81.6443 94.0277 78.0025 96.242 76.8877 96.9139C75.773 97.5905 73.7727 98.8017 72.4518 99.6108C71.131 100.42 69.207 101.593 68.1762 102.218C67.1455 102.842 65.3284 103.95 64.1297 104.678C62.931 105.407 60.1977 107.068 58.0599 108.369C55.9145 109.67 53.4102 111.194 52.4864 111.752C47.8672 114.562 30.1464 125.336 25.8479 127.948C22.5114 129.978 20.9081 130.981 20.8241 131.104C20.6485 131.336 20.7096 131.539 21.0074 131.719C21.3127 131.913 21.664 131.941 22.0762 131.818C22.2595 131.766 26.5351 130.077 31.5818 128.066C43.6069 123.278 54.1279 119.09 61.9156 115.991C92.9441 103.656 95.3644 102.691 111.008 96.4691C117.246 93.9851 122.873 91.7471 123.507 91.4963C124.148 91.2408 124.744 91.009 124.828 90.9806C124.965 90.938 125.461 91.2077 129.348 93.4504C131.753 94.8367 140.098 99.6392 147.885 104.129C155.673 108.615 162.3 112.447 162.606 112.641C163.529 113.228 163.995 113.943 163.995 114.756C163.995 115.296 163.842 115.698 163.453 116.181C162.942 116.829 161.98 117.378 160.934 117.624C160.712 117.676 157.063 118.291 152.818 118.991C87.0499 129.826 7.8981 142.857 7.63087 142.885C7.09642 142.951 5.97408 142.899 5.37855 142.79ZM31.3986 126.24C33.9028 124.711 36.1399 123.349 44.8896 118.031C48.226 116.001 52.0435 113.678 53.3644 112.868C54.6852 112.059 56.6474 110.867 57.7163 110.219C58.7852 109.566 60.61 108.459 61.7629 107.754C62.9157 107.049 66.3515 104.962 69.3978 103.117C72.4442 101.272 76.0174 99.0998 77.3382 98.2907C78.6591 97.4817 80.4991 96.365 81.4229 95.8067C82.3468 95.2484 84.0952 94.1838 85.3168 93.441C89.0579 91.1604 95.6698 87.1386 97.7312 85.8942C98.8001 85.2413 101.251 83.7603 103.167 82.5964C105.084 81.4277 106.695 80.4766 106.741 80.4766C106.794 80.4766 107.008 80.576 107.222 80.7038C108.596 81.4939 122.866 89.7173 123.148 89.8781C123.377 90.0059 123.469 90.091 123.415 90.1194C123.369 90.1478 117.651 92.4284 110.703 95.1963C103.755 97.9595 94.1504 101.778 89.3633 103.685C84.5762 105.591 77.8039 108.284 74.3224 109.67C70.8332 111.056 66.1835 112.911 63.977 113.786C58.266 116.062 46.8441 120.6 44.2864 121.612C43.0953 122.081 39.2091 123.623 35.6589 125.038C32.1086 126.448 29.192 127.602 29.1844 127.602C29.1691 127.602 30.1693 126.987 31.3986 126.24ZM117.345 84.929C109.168 80.2117 108.145 79.625 108.122 79.5824C108.107 79.5587 111.94 76.9375 116.628 73.7532C126.798 66.8452 127.691 66.249 127.966 66.1591C128.561 65.9699 129.432 66.1828 129.676 66.585C129.791 66.7742 129.798 66.8452 129.722 67.1669C129.6 67.6685 127.027 78.1961 126.698 79.5303C126.553 80.117 126.057 82.1374 125.599 84.0253C124.874 86.9825 124.606 88.0376 124.4 88.7946L124.362 88.9508L123.507 88.4681C123.034 88.1984 120.262 86.6087 117.345 84.929ZM103.259 76.7908C101.434 75.7357 99.9377 74.8651 99.9454 74.8509C99.9454 74.8367 105.099 73.2327 111.398 71.2881C122.133 67.9713 122.835 67.7631 122.56 67.9524C120.949 69.0879 106.687 78.726 106.641 78.7165C106.603 78.7071 105.084 77.8412 103.259 76.7908Z" fill="black"/>
<path d="M375.095 86.4005C375.385 86.3011 375.637 86.0551 375.637 85.8658C375.637 85.7097 375.347 85.44 375.103 85.3643C374.965 85.3217 374.461 85.3028 373.423 85.3028C372.598 85.3028 371.644 85.2791 371.293 85.2554C370.728 85.2081 370.629 85.2129 370.377 85.2933C369.575 85.5488 369.743 86.2538 370.644 86.3957C370.804 86.4241 371.82 86.4572 372.889 86.4667C374.706 86.4904 374.851 86.4856 375.095 86.4005Z" fill="black"/>
<path d="M384.455 84.6356C385.524 84.2808 387.685 83.4149 387.96 83.2256C388.303 82.9938 388.166 82.5254 387.7 82.3551C387.273 82.1989 387.028 82.2415 386.005 82.6673C385.494 82.885 384.654 83.2162 384.142 83.4007C383.57 83.6136 383.188 83.784 383.119 83.8644C382.867 84.153 383.081 84.5505 383.554 84.6688C383.898 84.7587 384.104 84.7492 384.455 84.6356Z" fill="black"/>
<path d="M362.253 84.1672C362.558 84.0537 362.68 83.9164 362.68 83.6846C362.68 83.4338 362.52 83.3108 361.764 82.9891C361.39 82.8329 360.687 82.497 360.191 82.2415C359.031 81.6453 358.84 81.5838 358.458 81.6548C357.901 81.7589 357.588 82.1232 357.794 82.426C357.946 82.6531 359.687 83.5521 360.978 84.0678C361.527 84.2902 361.863 84.3139 362.253 84.1672Z" fill="black"/>
<path d="M394.702 79.2039C394.977 79.095 395.427 78.7733 396.336 78.0115C397.458 77.0841 397.55 76.9895 397.55 76.7624C397.55 76.4075 397.008 76.1236 396.458 76.1899C396.153 76.2277 395.901 76.3839 395.221 76.9753C394.931 77.2214 394.458 77.6188 394.152 77.8506C393.381 78.4563 393.351 78.4894 393.351 78.707C393.351 78.9389 393.564 79.1329 393.931 79.2275C394.267 79.3174 394.412 79.3127 394.702 79.2039Z" fill="black"/>
<path d="M352.785 78.1345C352.923 78.0967 353.106 77.9973 353.19 77.9122C353.457 77.6377 353.396 77.4816 352.801 76.8854C352.503 76.5921 352.022 76.0858 351.724 75.7688C351.106 75.0875 350.953 74.9834 350.502 74.955C350.06 74.9266 349.685 75.078 349.525 75.3571C349.418 75.5511 349.418 75.5653 349.67 75.8729C350.006 76.2987 351.396 77.7466 351.648 77.9311C351.839 78.0683 352.236 78.2055 352.442 78.2055C352.495 78.2008 352.655 78.1724 352.785 78.1345Z" fill="black"/>
<path d="M401.825 72.0167C402.161 71.9126 402.267 71.7943 403.161 70.5074C404.001 69.2867 404.039 69.1589 403.634 68.9081C403.321 68.7141 403.046 68.6668 402.657 68.7378C402.283 68.8088 402.206 68.875 401.588 69.7787C401.313 70.1856 400.939 70.725 400.763 70.9805C400.412 71.4773 400.397 71.6335 400.649 71.8606C400.779 71.9741 401.183 72.1019 401.42 72.1019C401.496 72.1019 401.68 72.064 401.825 72.0167Z" fill="black"/>
<path d="M346.907 70.5168C347.181 70.4459 347.464 70.1998 347.464 70.0342C347.464 69.9822 347.158 69.3671 346.792 68.6763C346.074 67.342 345.967 67.219 345.494 67.1338C344.96 67.0439 344.334 67.342 344.334 67.6874C344.334 67.8577 345.563 70.162 345.746 70.3323C345.876 70.4553 346.28 70.5878 346.525 70.5878C346.601 70.5831 346.777 70.5547 346.907 70.5168Z" fill="black"/>
<path d="M406.391 64.0489C406.696 63.9543 406.841 63.7224 407.154 62.8518C407.803 61.0491 407.811 60.9971 407.353 60.751C406.971 60.5429 406.505 60.5429 406.139 60.7605C405.887 60.9072 405.864 60.945 405.597 61.7399C405.452 62.1942 405.246 62.7809 405.139 63.0411C404.91 63.5899 404.955 63.7792 405.345 63.9827C405.597 64.1151 406.063 64.1435 406.391 64.0489Z" fill="black"/>
<path d="M343.563 62.2793C343.937 62.0853 343.96 61.9481 343.723 61.0964C343.608 60.6848 343.448 60.0886 343.379 59.7811C343.257 59.2701 343.219 59.1991 343.005 59.0571C342.402 58.6502 341.394 58.9247 341.417 59.4924C341.417 59.6864 341.715 60.9024 341.944 61.6689C342.051 62.0332 342.104 62.1184 342.31 62.2462C342.532 62.3834 342.616 62.4023 342.944 62.4023C343.25 62.4023 343.379 62.3739 343.563 62.2793Z" fill="black"/>
<path d="M142.633 60.557C142.984 60.4908 146.275 59.0051 146.397 58.8537C146.756 58.4279 146.107 57.9121 145.366 58.0351C145.007 58.0919 141.694 59.5634 141.549 59.7243C141.174 60.1643 141.869 60.7037 142.633 60.557Z" fill="black"/>
<path d="M408.307 55.6931C408.857 55.5227 408.864 55.5038 408.948 54.0418C409.01 52.8825 409.01 52.7075 408.903 52.5513C408.758 52.3337 408.376 52.1823 407.979 52.1823C407.742 52.1823 407.635 52.2154 407.399 52.3621L407.108 52.5371L407.047 53.7673C406.971 55.3335 406.971 55.3287 407.124 55.4707C407.276 55.6174 407.681 55.7782 407.895 55.7782C407.979 55.7782 408.162 55.7404 408.307 55.6931Z" fill="black"/>
<path d="M155.49 55.0448C157.552 54.1789 157.468 54.2215 157.613 54.0654C158.071 53.5922 157.147 53.0103 156.353 53.2752C155.75 53.4739 152.879 54.7373 152.757 54.8555C152.406 55.2009 152.795 55.6694 153.475 55.7167C153.811 55.7403 153.849 55.7309 155.49 55.0448Z" fill="black"/>
<path d="M341.959 53.9471C342.486 53.7862 342.501 53.7342 342.501 52.2627C342.501 50.8007 342.47 50.6966 342.028 50.5262C341.73 50.4127 341.356 50.4032 341.05 50.5026C340.615 50.6445 340.592 50.7202 340.592 52.2154C340.592 53.4976 340.6 53.5875 340.745 53.7342C340.898 53.8856 341.295 54.0275 341.562 54.0275C341.638 54.0275 341.814 53.9897 341.959 53.9471Z" fill="black"/>
<path d="M165.225 51.0088C165.637 50.9 168.882 49.5421 168.989 49.4333C169.264 49.1446 169.081 48.7708 168.577 48.61C168.126 48.4633 168.012 48.4964 165.561 49.4948C164.881 49.7645 164.255 50.0484 164.164 50.1241C163.629 50.5452 164.431 51.2123 165.225 51.0088Z" fill="black"/>
<path d="M407.864 47.2284C408.23 47.0912 408.337 46.9114 408.284 46.547C408.2 45.9793 407.696 44.2239 407.582 44.0819C407.223 43.6514 406.2 43.6798 405.894 44.1293C405.795 44.2807 405.795 44.3422 405.909 44.7254C405.978 44.962 406.131 45.5582 406.253 46.055C406.49 46.9918 406.566 47.129 406.948 47.2473C407.2 47.3325 407.627 47.323 407.864 47.2284Z" fill="black"/>
<path d="M177.509 46.1827C179.922 45.279 180.38 45.0898 180.548 44.9384C181.006 44.5314 180.342 43.9495 179.571 44.0772C179.349 44.1151 177.051 44.9573 175.982 45.3973C175.6 45.5534 175.41 45.8326 175.524 46.055C175.639 46.2726 175.99 46.4619 176.333 46.4903C176.601 46.5092 176.73 46.4761 177.509 46.1827Z" fill="black"/>
<path d="M342.647 45.4967C343.044 45.3737 343.105 45.2554 343.395 44.0441C343.548 43.4054 343.677 42.7619 343.677 42.6152C343.685 42.3692 343.662 42.3266 343.448 42.1941C343.151 42.0143 342.708 41.9622 342.364 42.0758C341.899 42.2225 341.868 42.2982 341.479 43.9637C341.25 44.9384 341.242 45.0898 341.395 45.2743C341.601 45.5251 342.219 45.6339 342.647 45.4967Z" fill="black"/>
<path d="M543.874 43.0268C546.271 42.8991 546.409 42.8707 546.63 42.5442C546.836 42.2509 546.638 41.9386 546.157 41.7966C545.912 41.7257 545.798 41.7257 544.653 41.7919C543.973 41.8345 543.034 41.8771 542.576 41.896C542.11 41.9149 541.621 41.9528 541.492 41.9906C540.881 42.142 540.759 42.653 541.27 42.9417C541.538 43.0931 541.56 43.0978 542.171 43.0931C542.522 43.0883 543.286 43.0599 543.874 43.0268Z" fill="black"/>
<path d="M532.505 43.0552C533.009 42.918 533.215 42.5111 532.917 42.213C532.704 41.9954 532.444 41.9339 531.581 41.896C531.161 41.8818 530.192 41.8345 529.428 41.7919C528.084 41.7162 528.031 41.7162 527.794 41.8014C527.474 41.9197 527.245 42.1752 527.298 42.3786C527.351 42.5915 527.611 42.7997 527.901 42.8565C528.459 42.9701 532.223 43.1309 532.505 43.0552Z" fill="black"/>
<path d="M190.26 41.4228C192.268 40.6942 192.397 40.6232 192.397 40.2731C192.397 39.9182 191.81 39.6391 191.267 39.7384C190.993 39.7857 187.687 40.9875 187.45 41.1247C187.358 41.1768 187.244 41.2998 187.198 41.3944C187.03 41.7304 187.519 42.1042 188.122 42.1042C188.328 42.1042 188.817 41.948 190.26 41.4228Z" fill="black"/>
<path d="M519.266 41.7256C519.564 41.5458 519.572 41.5269 519.541 41.2951C519.473 40.8787 519.411 40.8598 517.037 40.4907C515.892 40.3109 514.853 40.1642 514.731 40.1642C514.563 40.1642 514.418 40.2163 514.204 40.3488C513.96 40.5002 513.907 40.5664 513.907 40.7131C513.907 40.9497 514.151 41.1957 514.464 41.2761C514.876 41.3802 518.404 41.9149 518.694 41.9149C518.908 41.9149 519.03 41.877 519.266 41.7256Z" fill="black"/>
<path d="M506.02 39.2937C506.6 39.1328 506.745 38.636 506.302 38.3663C506.18 38.2953 505.707 38.1344 505.241 38.0114C504.783 37.8884 503.943 37.6518 503.37 37.4815C502.798 37.3112 502.233 37.174 502.103 37.174C501.377 37.174 500.935 37.6376 501.278 38.0445C501.377 38.1628 501.622 38.2527 502.63 38.5555C504.08 38.9908 505.271 39.3079 505.569 39.3362C505.684 39.3504 505.89 39.3315 506.02 39.2937Z" fill="black"/>
<path d="M404.528 39.0713C404.833 39.0192 405.093 38.8536 405.192 38.6549C405.261 38.5035 405.23 38.4136 404.932 37.8695C404.444 36.9847 403.894 36.0952 403.726 35.9248C403.55 35.7498 403.291 35.6693 402.886 35.6693C402.634 35.6693 402.52 35.7025 402.321 35.8255C401.962 36.0479 401.917 36.204 402.115 36.521C402.199 36.663 402.497 37.1645 402.772 37.6329C403.054 38.1013 403.329 38.5745 403.398 38.688C403.573 38.9814 404.062 39.147 404.528 39.0713Z" fill="black"/>
<path d="M200.567 37.7559C202.598 37.0841 203.98 36.5683 204.14 36.4217C204.346 36.2371 204.338 35.9864 204.117 35.7829C203.957 35.6268 203.506 35.5085 203.224 35.5463C203.025 35.57 200.75 36.3318 199.643 36.7387C199.002 36.9752 198.857 37.2639 199.185 37.6424C199.276 37.7559 199.712 37.8931 199.971 37.8931C200.063 37.8931 200.338 37.8316 200.567 37.7559Z" fill="black"/>
<path d="M345.517 37.1266C345.746 36.9894 345.822 36.8853 346.09 36.3081C346.265 35.9438 346.54 35.3854 346.7 35.0684C346.868 34.7514 347.006 34.4344 347.006 34.3682C347.006 34.0228 346.349 33.7152 345.83 33.8241C345.334 33.9234 345.219 34.0606 344.654 35.1962C343.906 36.7055 343.906 36.6961 344.051 36.909C344.196 37.1266 344.578 37.278 344.967 37.278C345.181 37.278 345.319 37.2402 345.517 37.1266Z" fill="black"/>
<path d="M494.216 35.1347C494.651 34.9501 494.781 34.671 494.552 34.3918C494.491 34.3161 494.14 34.1221 493.766 33.9613C493.399 33.8004 492.613 33.4455 492.017 33.1758C491.422 32.9061 490.834 32.6743 490.712 32.6601C490.185 32.5939 489.628 32.9109 489.628 33.2752C489.628 33.4361 489.681 33.4928 489.994 33.6774C490.422 33.9329 493.101 35.1252 493.399 35.1962C493.72 35.2671 493.934 35.253 494.216 35.1347Z" fill="black"/>
<path d="M212.562 33.6868C212.791 33.6159 213.608 33.3462 214.387 33.0907C216.097 32.5276 216.021 32.5607 216.173 32.3999C216.448 32.1113 216.219 31.7043 215.7 31.5671C215.318 31.4678 215.219 31.4914 213.02 32.2153C211.31 32.7784 211.233 32.8068 211.081 33.0055C210.928 33.1948 210.928 33.2232 211.027 33.4077C211.165 33.6443 211.547 33.8241 211.905 33.8241C212.043 33.8241 212.333 33.7625 212.562 33.6868Z" fill="black"/>
<path d="M399.046 31.3448C399.405 31.2454 399.611 31.0514 399.611 30.8196C399.611 30.654 399.504 30.5073 398.978 29.9632C397.504 28.4396 397.321 28.2787 396.886 28.1888C396.336 28.0753 395.717 28.3592 395.717 28.7282C395.717 28.8986 395.847 29.0594 396.657 29.8591C397.168 30.3748 397.68 30.8905 397.794 31.0041C398.123 31.3448 398.588 31.4725 399.046 31.3448Z" fill="black"/>
<path d="M483.291 29.9868C483.573 29.9158 483.81 29.7597 483.901 29.5846C484.069 29.2771 483.947 29.1777 482.245 28.2361C481.382 27.7583 480.595 27.3419 480.511 27.3088C480.29 27.2283 479.893 27.2331 479.633 27.3135C479.16 27.4649 478.984 27.8766 479.29 28.1321C479.542 28.345 482.39 29.9016 482.657 29.9726C482.939 30.0483 483.031 30.0483 483.291 29.9868Z" fill="black"/>
<path d="M226.121 29.3481C227.16 29.0169 228.091 28.7046 228.183 28.6525C228.274 28.6005 228.389 28.4869 228.435 28.4065C228.61 28.0753 228.099 27.6684 227.511 27.6731C227.335 27.6778 226.633 27.8718 225.343 28.2787C223.296 28.9222 223.09 29.0216 223.09 29.3481C223.09 29.6367 223.594 29.9442 224.067 29.9442C224.151 29.9442 225.075 29.6745 226.121 29.3481Z" fill="black"/>
<path d="M350.083 29.2534C350.373 29.1588 352.213 26.8451 352.213 26.5706C352.221 26.3483 352.022 26.1637 351.641 26.0502C351.419 25.9792 351.312 25.9745 351.068 26.0123C350.908 26.0407 350.701 26.1117 350.61 26.1732C350.518 26.2347 350.037 26.8072 349.549 27.4412C348.648 28.6194 348.556 28.8039 348.755 29.0405C348.976 29.296 349.64 29.4001 350.083 29.2534Z" fill="black"/>
<path d="M237.063 26.0218C239.231 25.4067 240.323 25.0613 240.514 24.9288C241.025 24.5787 240.567 23.9825 239.788 23.9825C239.682 23.9825 238.712 24.2428 237.635 24.5598C235.528 25.1796 235.368 25.2506 235.352 25.5865C235.345 25.8751 235.696 26.1259 236.192 26.1827C236.353 26.2016 236.597 26.1543 237.063 26.0218Z" fill="black"/>
<path d="M391.357 24.38C391.678 24.2144 391.793 23.9589 391.647 23.7412C391.495 23.5094 389.105 21.8628 388.616 21.6546C388.189 21.4654 387.486 21.6168 387.265 21.9338C387.066 22.2271 387.196 22.3643 388.471 23.2255C389.105 23.656 389.739 24.0866 389.869 24.1907C390.311 24.5314 390.922 24.6071 391.357 24.38Z" fill="black"/>
<path d="M473.425 24.2002C473.868 24.0488 474.029 23.656 473.754 23.3958C473.555 23.2113 470.784 21.5789 470.509 21.489C470.051 21.3423 469.425 21.5363 469.241 21.8817C469.127 22.0852 469.333 22.3927 469.707 22.582C469.852 22.653 470.463 23.0173 471.074 23.3864C471.685 23.7554 472.28 24.1055 472.402 24.1623C472.654 24.2806 473.143 24.2995 473.425 24.2002Z" fill="black"/>
<path d="M250.461 22.1798C252.843 21.5174 252.912 21.4937 253.05 21.3139C253.202 21.1152 253.202 20.9875 253.057 20.7935C252.912 20.609 252.561 20.4717 252.225 20.4717C251.935 20.4717 248.255 21.4796 247.995 21.6262C247.552 21.8865 247.667 22.3643 248.217 22.5441C248.606 22.6672 248.888 22.6198 250.461 22.1798Z" fill="black"/>
<path d="M356.473 21.9149C356.71 21.8581 356.97 21.6688 357.565 21.12C357.901 20.8077 358.405 20.3629 358.68 20.1264C358.947 19.8945 359.222 19.6248 359.283 19.5302C359.382 19.3741 359.375 19.3362 359.237 19.1469C358.985 18.7921 358.26 18.6691 357.825 18.9056C357.611 19.0239 357.016 19.5302 356.069 20.3961C355.328 21.0727 355.252 21.1626 355.252 21.3566C355.252 21.6499 355.603 21.8959 356.054 21.9243C356.221 21.9385 356.412 21.9338 356.473 21.9149Z" fill="black"/>
<path d="M263.25 18.7306C265.426 18.1581 265.381 18.1722 265.556 17.9972C265.938 17.6045 265.503 17.1219 264.755 17.1219C264.35 17.1219 260.746 18.0824 260.487 18.2574C260.097 18.5224 260.112 18.7826 260.54 19.0476C260.952 19.3031 261.166 19.2747 263.25 18.7306Z" fill="black"/>
<path d="M381.447 18.5555C381.852 18.3994 382.005 18.0776 381.806 17.8079C381.669 17.6234 378.691 16.185 378.157 16.0478C377.614 15.9011 376.935 16.185 376.935 16.5541C376.935 16.8427 377.065 16.961 377.767 17.2827C378.126 17.4483 378.92 17.8221 379.516 18.1107C380.516 18.5886 380.646 18.6359 380.928 18.6359C381.104 18.6359 381.34 18.5981 381.447 18.5555Z" fill="black"/>
<path d="M463.34 18.4136C463.844 18.352 464.18 17.9168 463.951 17.6187C463.821 17.4483 461.049 15.8207 460.668 15.6929C460.248 15.5463 459.805 15.6172 459.476 15.8727C459.286 16.0242 459.263 16.3412 459.431 16.4926C459.492 16.5493 460.217 16.9799 461.034 17.4531C462.332 18.2006 462.889 18.4656 463.111 18.4419C463.141 18.4372 463.248 18.423 463.34 18.4136Z" fill="black"/>
<path d="M275.581 15.603C278.047 14.9974 278.047 14.9974 278.215 14.8271C278.597 14.4391 278.161 13.9518 277.421 13.9518C277.047 13.9518 273.336 14.8649 273.107 15.0069C272.542 15.3807 272.977 15.991 273.802 15.9816C273.939 15.9816 274.741 15.8112 275.581 15.603Z" fill="black"/>
<path d="M364.91 15.2245C364.994 15.1961 365.689 14.775 366.452 14.2877L367.834 13.4076L368.598 13.6584C369.43 13.9281 369.766 13.9612 370.148 13.824C370.384 13.7388 370.598 13.507 370.598 13.3367C370.598 13.2799 370.545 13.1616 370.476 13.0717C370.339 12.8966 369.957 12.75 367.689 12.0166C366.284 11.5624 366.032 11.534 365.59 11.7895C365.093 12.0686 365.17 12.4992 365.75 12.7216C365.895 12.7783 366.017 12.8351 366.017 12.8493C366.017 12.8635 365.498 13.2042 364.872 13.6111C363.597 14.4296 363.467 14.5669 363.658 14.8791C363.719 14.9738 363.856 15.0968 363.963 15.1441C364.2 15.2577 364.704 15.3002 364.91 15.2245Z" fill="black"/>
<path d="M288.613 12.6317C289.72 12.4046 290.698 12.1916 290.789 12.1585C291.056 12.0734 291.217 11.8368 291.171 11.6002C291.125 11.3494 290.896 11.1791 290.499 11.1081C290.239 11.0561 290.071 11.0845 288.209 11.4725C285.994 11.9361 285.727 12.026 285.651 12.3478C285.597 12.5512 285.788 12.8399 286.025 12.9156C286.468 13.067 286.544 13.0575 288.613 12.6317Z" fill="black"/>
<path d="M453.483 12.6601C453.681 12.5512 453.765 12.4566 453.788 12.3194C453.857 11.974 453.727 11.8888 451.253 10.7059C450.681 10.4363 450.131 10.1997 450.032 10.1855C449.696 10.1334 449.337 10.2091 449.085 10.3889C448.864 10.5403 448.841 10.5829 448.871 10.7864C448.894 10.9141 448.955 11.0466 449.009 11.0892C449.108 11.1602 451.414 12.2957 452.154 12.6411C452.681 12.8777 453.086 12.8872 453.483 12.6601Z" fill="black"/>
<path d="M299.86 10.4978C301.807 10.1902 303.785 9.86373 303.891 9.82588C304.105 9.75964 304.327 9.49941 304.327 9.32434C304.327 9.02626 303.907 8.7471 303.464 8.7471C303.09 8.7471 299.494 9.31961 299.135 9.43317C298.547 9.62243 298.532 10.2375 299.12 10.4221C299.433 10.5214 299.608 10.5356 299.86 10.4978Z" fill="black"/>
<path d="M357.588 10.4031C357.871 10.3321 358.153 10.0814 358.153 9.89212C358.153 9.6792 357.924 9.4379 357.642 9.348C357.428 9.27702 355.397 8.86065 354.175 8.63354C353.588 8.51998 353.488 8.51525 353.221 8.5673C352.87 8.643 352.58 8.88431 352.58 9.11142C352.58 9.30541 352.755 9.53253 352.962 9.59877C353.252 9.6934 357.069 10.4504 357.245 10.4457C357.344 10.4457 357.497 10.4268 357.588 10.4031Z" fill="black"/>
<path d="M374.942 9.51834C375.003 9.50415 375.385 9.33855 375.789 9.14929C376.194 8.96476 376.973 8.61463 377.522 8.37805C378.087 8.13201 378.553 7.89071 378.599 7.82447C378.95 7.34185 378.194 6.81666 377.438 7.01538C377.293 7.05323 376.683 7.29927 376.079 7.56896C373.69 8.62882 373.583 8.69506 373.674 9.06885C373.743 9.31962 374.163 9.55146 374.545 9.54673C374.705 9.54673 374.881 9.53254 374.942 9.51834Z" fill="black"/>
<path d="M315.122 8.48215C317.374 8.25977 317.489 8.23612 317.68 7.91911C317.832 7.67307 317.68 7.39864 317.306 7.2425C317.061 7.13841 316.985 7.13368 316.504 7.16207C315.473 7.22358 312.725 7.51693 312.503 7.5879C311.793 7.81501 311.831 8.43957 312.572 8.6241C312.74 8.66668 312.923 8.69507 312.976 8.69507C313.022 8.69034 313.992 8.59571 315.122 8.48215Z" fill="black"/>
<path d="M344.463 8.27396C344.746 8.16987 344.944 7.95695 344.944 7.76769C344.944 7.59262 344.7 7.34659 344.433 7.26615C344.234 7.19991 342.57 7.03904 340.737 6.90182C340.104 6.84978 339.974 6.85451 339.768 6.92075C339.256 7.08635 339.065 7.43648 339.333 7.74876C339.485 7.93329 339.821 8.01846 340.669 8.0847C341.066 8.11309 341.974 8.19352 342.677 8.25503C344.227 8.39225 344.158 8.39225 344.463 8.27396Z" fill="black"/>
<path d="M442.359 7.77714C442.802 7.54057 442.833 7.14785 442.42 6.91128C442.252 6.81665 440.725 6.23467 439.42 5.77572C438.664 5.51075 438.343 5.4729 437.939 5.60065C437.519 5.73314 437.358 6.09746 437.595 6.38135C437.664 6.46652 437.923 6.59427 438.267 6.71729C438.565 6.82611 439.412 7.13839 440.145 7.40809C441.275 7.82446 441.519 7.89543 441.802 7.89543C442.039 7.89543 442.191 7.86231 442.359 7.77714Z" fill="black"/>
<path d="M329.843 7.71092C330.812 7.68253 330.82 7.68253 331.057 7.53585C331.53 7.2425 331.4 6.77881 330.79 6.59902C330.538 6.52804 330.309 6.52331 328.469 6.5517C326.751 6.57536 326.377 6.59428 326.109 6.66526C325.59 6.80247 325.422 7.11948 325.674 7.45068C325.888 7.72511 326.063 7.7535 327.552 7.74404C328.278 7.73931 329.308 7.72511 329.843 7.71092Z" fill="black"/>
<path d="M387.662 4.73479C388.372 4.53133 389.265 4.28057 389.647 4.17647C390.395 3.96829 390.678 3.79322 390.678 3.52353C390.678 3.19232 390.136 2.89424 389.632 2.94155C389.494 2.95575 388.876 3.10715 388.25 3.27749C385.486 4.0298 385.257 4.12443 385.257 4.51714C385.257 4.68747 385.303 4.75845 385.509 4.89566C385.936 5.18428 386.143 5.17009 387.662 4.73479Z" fill="black"/>
<path d="M430.09 3.98721C430.365 3.89731 430.533 3.68913 430.533 3.45255C430.533 3.0693 430.151 2.94155 427.311 2.33592C425.891 2.0331 425.669 2.02364 425.318 2.25548C424.936 2.50152 424.921 2.85165 425.287 3.0693C425.387 3.13081 426.089 3.31061 426.906 3.49513C427.708 3.6702 428.593 3.86892 428.884 3.9399C429.471 4.07711 429.784 4.0913 430.09 3.98721Z" fill="black"/>
<path d="M399.611 2.23656C399.84 2.20344 400.749 2.09934 401.627 2.00471C403.329 1.82492 403.558 1.77287 403.734 1.50791C403.971 1.14831 403.513 0.703552 402.894 0.703552C402.551 0.703552 400.268 0.940127 399.26 1.07734C398.741 1.14831 398.542 1.20036 398.367 1.30918C397.908 1.59307 398.061 2.08988 398.657 2.24602C398.962 2.32173 399.054 2.32173 399.611 2.23656Z" fill="black"/>
<path d="M416.95 1.77762C417.721 1.45588 417.477 0.821855 416.538 0.708299C415.988 0.642058 414.247 0.519039 413.262 0.485918C412.331 0.448066 412.071 0.49065 411.812 0.71303C411.621 0.883365 411.606 1.17199 411.781 1.34232C412.026 1.57416 412.224 1.61202 413.484 1.67826C414.14 1.71611 415.102 1.77762 415.614 1.81547C416.767 1.90537 416.645 1.90537 416.95 1.77762Z" fill="black"/>
</svg>
