<svg width="100" height="100" viewBox="0 0 100 100" fill="none" xmlns="http://www.w3.org/2000/svg">
<path d="M45.8338 58.3334V45.8334H54.1671V58.3334H75.0004C77.3017 58.3334 79.1671 60.1988 79.1671 62.5V87.5C79.1671 89.8013 77.3017 91.6667 75.0004 91.6667H25.0006C22.6994 91.6667 20.834 89.8013 20.834 87.5V62.5C20.834 60.1988 22.6994 58.3334 25.0006 58.3334H45.8338ZM10.4614 36.8203C15.9763 20.2677 31.5948 8.33337 50.0004 8.33337C68.4067 8.33337 84.025 20.2677 89.54 36.8203L81.6321 39.4563C77.22 26.2142 64.7254 16.6667 50.0004 16.6667C35.276 16.6667 22.7812 26.2142 18.3693 39.4563L10.4614 36.8203ZM26.2771 42.0921C29.586 32.1606 38.9571 25 50.0004 25C61.0442 25 70.415 32.1606 73.7242 42.0921L65.8163 44.728C63.6104 38.1071 57.3629 33.3334 50.0004 33.3334C42.6383 33.3334 36.3909 38.1071 34.185 44.728L26.2771 42.0921ZM29.1673 66.6667V83.3334H70.8338V66.6667H29.1673Z" fill="#FECC00"/>
</svg>
