<svg width="45" height="45" viewBox="0 0 45 45" fill="none" xmlns="http://www.w3.org/2000/svg">
<path d="M20.6252 26.25V20.625H24.3752V26.25H33.7502C34.7858 26.25 35.6252 27.0894 35.6252 28.125V39.375C35.6252 40.4106 34.7858 41.25 33.7502 41.25H11.2503C10.2147 41.25 9.37529 40.4106 9.37529 39.375V28.125C9.37529 27.0894 10.2147 26.25 11.2503 26.25H20.6252ZM4.70764 16.5691C7.18935 9.12045 14.2177 3.75 22.5002 3.75C30.783 3.75 37.8113 9.12045 40.293 16.5691L36.7344 17.7553C34.749 11.7964 29.1264 7.5 22.5002 7.5C15.8742 7.5 10.2515 11.7964 8.26617 17.7553L4.70764 16.5691ZM11.8247 18.9414C13.3137 14.4723 17.5307 11.25 22.5002 11.25C27.4699 11.25 31.6868 14.4723 33.1759 18.9414L29.6173 20.1276C28.6247 17.1482 25.8133 15 22.5002 15C19.1873 15 16.3759 17.1482 15.3832 20.1276L11.8247 18.9414ZM13.1253 30V37.5H31.8752V30H13.1253Z" fill="#0F89FF"/>
</svg>
