<svg width="50" height="50" viewBox="0 0 50 50" fill="none" xmlns="http://www.w3.org/2000/svg">
<path d="M18.6761 37.4998C18.1707 41.0334 15.1317 43.7498 11.4583 43.7498C7.7849 43.7498 4.74594 41.0334 4.24048 37.4998H2.08331V12.4998C2.08331 11.3493 3.01606 10.4165 4.16665 10.4165H33.3333C34.4839 10.4165 35.4166 11.3493 35.4166 12.4998V16.6665H41.6666L47.9166 25.1159V37.4998H43.6762C43.1706 41.0334 40.1316 43.7498 36.4583 43.7498C32.785 43.7498 29.746 41.0334 29.2404 37.4998H18.6761ZM31.25 14.5832H6.24998V31.355C7.57344 30.0044 9.41802 29.1665 11.4583 29.1665C14.3671 29.1665 16.878 30.8696 18.0483 33.3332H29.8683C30.2177 32.5978 30.6866 31.9298 31.25 31.355V14.5832ZM35.4166 27.0832H43.75V26.4894L39.566 20.8332H35.4166V27.0832ZM36.4583 39.5832C37.8189 39.5832 38.9764 38.7136 39.4054 37.4998C39.5206 37.174 39.5833 36.8234 39.5833 36.4582C39.5833 34.7323 38.1841 33.3332 36.4583 33.3332C34.7325 33.3332 33.3333 34.7323 33.3333 36.4582C33.3333 36.8234 33.396 37.174 33.5112 37.4998C33.9402 38.7136 35.0977 39.5832 36.4583 39.5832ZM14.5833 36.4582C14.5833 34.7323 13.1842 33.3332 11.4583 33.3332C9.73242 33.3332 8.33331 34.7323 8.33331 36.4582C8.33331 36.8234 8.39598 37.174 8.51113 37.4998C8.94013 38.7136 10.0977 39.5832 11.4583 39.5832C12.819 39.5832 13.9765 38.7136 14.4055 37.4998C14.5206 37.174 14.5833 36.8234 14.5833 36.4582Z" fill="#FECC00"/>
</svg>
