<svg width="45" height="45" viewBox="0 0 45 45" fill="none" xmlns="http://www.w3.org/2000/svg">
<path d="M1.875 41.25C1.875 32.9657 8.59072 26.25 16.875 26.25C25.1593 26.25 31.875 32.9657 31.875 41.25H28.125C28.125 35.0369 23.0882 30 16.875 30C10.6618 30 5.625 35.0369 5.625 41.25H1.875ZM16.875 24.375C10.6594 24.375 5.625 19.3407 5.625 13.1251C5.625 6.90946 10.6594 1.87508 16.875 1.87508C23.0906 1.87508 28.125 6.90946 28.125 13.1251C28.125 19.3407 23.0906 24.375 16.875 24.375ZM16.875 20.625C21.0187 20.625 24.375 17.2688 24.375 13.1251C24.375 8.98133 21.0187 5.62508 16.875 5.62508C12.7312 5.62508 9.375 8.98133 9.375 13.1251C9.375 17.2688 12.7312 20.625 16.875 20.625ZM40.4017 1.46924C42.1449 4.981 43.125 8.9386 43.125 13.1251C43.125 17.3116 42.1449 21.2691 40.4017 24.781L37.3176 22.5377C38.6383 19.674 39.375 16.4856 39.375 13.1251C39.375 9.76452 38.6383 6.57605 37.3176 3.71236L40.4017 1.46924ZM34.2118 5.971C35.1225 8.17553 35.625 10.5916 35.625 13.1251C35.625 15.6585 35.1225 18.0746 34.2118 20.2791L31.0676 17.9925C31.5909 16.4662 31.875 14.8288 31.875 13.1251C31.875 11.4213 31.5909 9.78397 31.0676 8.2577L34.2118 5.971Z" fill="#FCDC00"/>
</svg>
