<svg width="1278" height="193" viewBox="0 0 1278 193" fill="none" xmlns="http://www.w3.org/2000/svg">
<path d="M-2 36.7139L28.4889 47.1285C58.9778 57.1537 119.778 78.5669 181.111 73.0189C241.822 67.8603 302.889 36.7139 363.333 36.7139C424.667 36.7139 486 67.8603 546.444 88.5921C607.511 109.713 668.222 119.446 729.556 93.848C790.356 67.8603 851.333 5.56758 912.667 0.408968C973.2 -5.13898 1034.44 47.4205 1094.89 57.4457C1156.13 67.8603 1216.67 36.7139 1247.78 21.1408L1278 5.56759V192.446H1247.51C1217.02 192.446 1156.22 192.446 1094.89 192.446C1034.18 192.446 973.111 192.446 912.667 192.446C851.333 192.446 790 192.446 729.556 192.446C668.489 192.446 607.778 192.446 546.444 192.446C485.644 192.446 424.667 192.446 363.333 192.446C302.8 192.446 241.556 192.446 181.111 192.446C119.867 192.446 59.3333 192.446 28.2222 192.446H-2V36.7139Z" fill="#F2F5FB"/>
</svg>
