<svg width="25" height="25" viewBox="0 0 25 25" fill="none" xmlns="http://www.w3.org/2000/svg">
<path d="M10.4166 15.6247L15.8229 12.4997L10.4166 9.37467V15.6247ZM22.4583 7.46842C22.5937 7.95801 22.6875 8.61426 22.75 9.44759C22.8229 10.2809 22.8541 10.9997 22.8541 11.6247L22.9166 12.4997C22.9166 14.7809 22.75 16.458 22.4583 17.5309C22.1979 18.4684 21.5937 19.0726 20.6562 19.333C20.1666 19.4684 19.2708 19.5622 17.8958 19.6247C16.5416 19.6976 15.3021 19.7288 14.1562 19.7288L12.5 19.7913C8.1354 19.7913 5.41665 19.6247 4.34373 19.333C3.40623 19.0726 2.80206 18.4684 2.54165 17.5309C2.40623 17.0413 2.31248 16.3851 2.24998 15.5518C2.17706 14.7184 2.14581 13.9997 2.14581 13.3747L2.08331 12.4997C2.08331 10.2184 2.24998 8.54134 2.54165 7.46842C2.80206 6.53092 3.40623 5.92676 4.34373 5.66634C4.83331 5.53092 5.72915 5.43717 7.10415 5.37467C8.45831 5.30176 9.6979 5.27051 10.8437 5.27051L12.5 5.20801C16.8646 5.20801 19.5833 5.37467 20.6562 5.66634C21.5937 5.92676 22.1979 6.53092 22.4583 7.46842Z" fill="white"/>
</svg>
